<?xml version="1.0" encoding="UTF-8"?>
<svg viewBox="0 0 527.62335 282.42422" xmlns="http://www.w3.org/2000/svg">
 <g transform="translate(-65.837 -40.384)">
  <path d="m450.7685,161.7015c-1.0757-.6878-1.6156-1.744-1.9056-2.9588 .6258-5.1694 1.5981-9.2728 4.7879-16.47-.3754-8.4098.4636-16.1565 2.2943-25.0867 .4617-1.8687-.0902-1.6294-1.2602-1.4643-3.183-5.1173-1.1116-14.9261.9337-17.0835 1.6967-1.2714 2.8079-1.6073 5.1846-1.9486 1.0957-.6428 1.5447-.9609 2.1924-2.0984-.5381-2.5056-2.5732-3.2296-1.1249-6.6552 2.6385-3.9334 6.3497-2.3594 7.538-.6787 1.4719,2.8232.3222,4.8823-.3553,7.1986-1.0183,2.9261.4704,2.6933.5338,3.4161 2.2727.8597 3.2211,1.4212 4.5601,2.0203 2.3711,4.257.3976,10.8465-.3936,15.5173-.9893.1961-2.9025-.5175-2.6751,1.1743 .7309,2.3304 1.4064,5.0911 1.8482,8.0064-.5525,7.1761-1.7484,13.9234-2.6226,20.8851 .5492,2.3269 1.2874,4.8073.725,7.4121 .3599,7.422-.124,4.9027-.5115,7.8534l3.3093,3.4161c1.0515,2.0658-1.6636,2.2456-3.4161,1.9215l-5.5511-3.2026c-.603-.5342-.6902-1.183-.854-1.8148-.3851-5.4625.2673-11.527 1.281-17.4006-.8589-3.3201-1.2974-7.1253-1.4945-11.2089-.0298-1.0229-.5122-3.0809-1.4945-.3202l-4.3768,12.063c-.7198,8.994-.9206,16.4785-1.7686,17.0612 .3428.756.4986,1.9796.0605,3.1149-1.3465,1.0989-2.5047,1.3766-3.7857,2.0172-2.1977.7999-4.4065.2611-3.5802-1.6969 .8817-1.6234 1.2822-1.9958 1.9215-2.989z" fill="#ccc"/>
  <path d="m562.9747,119.8623c-.1812-.2717-1.721-3.0356-1.721-3.0356l-.5441-1.4046 .7246-.7699 .317-1.0423-.1818-3.4885c0,0-1.5405-10.3744-1.5405-10.5109s-.1359-1.2687-.1359-1.2687l.1818-3.6244c0,0-.5441-1.1782-.4988-1.4499s.2717-1.7669.2717-1.7669 .0453-2.6274.0453-2.7639-.2265-1.2228-.2265-1.2228l.5894-.7253 1.5857-2.1292 .4982-2.3557c0,0 .5435-2.5375.5888-2.6727s.3629-2.628.3629-2.628l-.6347-5.1649c0,0-.2258-2.5375-.317-2.6733s-.5888-1.8575-.5888-1.8575l-.1818-2.0839-.5441-1.1329-.2258-1.2228c0,0-5.5272-1.314-5.5725-1.4499s-.9064-.2717-.9064-.2717l.2265-2.311 .0459-1.6763-.0918-1.1782 .3629-.5888-.6793-2.1745c0,0-.8158-2.311-2.9451-1.9934s-2.9903.9058-3.2168,1.0876-1.2687,1.4046-1.4492,1.8575-.1365,1.1782-.2264,1.6763-.5888,2.8085-.68,3.2161-.1812.9064-.1812.9064l-1.3593.7246-.5441-.3629-4.349,4.712c-.1352.0453-2.1286,2.8545-2.1286,3.4885s2.2198,2.6274 2.5815,2.6727c.3623.0446 2.8998-.0912 2.8998-.0912l1.4492-.3623 .3617,1.9481c0,0 .2724,2.2651.2724,2.4009s-.9517,5.3913-1.0417,5.5278-1.2234,7.7017-1.2234,7.7017l1.2687.2717c0,0-.4529,1.1329-.4529,1.4952s.3177,2.8998.2264,3.1715-.4529,2.8085-.4529,3.0803 .317,2.4009.3617,2.5827c.0453.1812-.0906,3.1709-.2258,3.6244s.0906,4.5302 0,4.9831-.5441,5.1649-.6353,5.4366-.4522,1.9481-.3164,2.4016 .3164,1.5405.3164,1.5405 .5441-.1359.5441,0-.5441,2.1292-.7699,2.2651-.9064.6793-.7705.8611 1.0869,1.4046 1.5405,1.1329 1.5857-.8611 1.7223-.8158 .4529.1359.4529,0 .0906-1.9934.0906-1.9934l.317-1.2687 1.4945-.4529c0,0 .2724-2.3557.2724-2.4915v-2.6274c0-.4082.7253-4.2591.7706-4.3949 .0446-.1359-.0459-2.4462-.0459-2.4462s.1359-3.4439.1359-3.5791 .2264-1.9028.2264-1.9028 1.2228-2.3104 1.2687-3.4879c.0446-1.1782.4982-1.9934.5888-2.311s.68-1.631.8158-1.631 .4529.0453.4529.0453l2.718,8.1093 .8611,3.3074 .997,5.7989 .2258,2.9451c0,0 .5894,2.628.68,2.9897s.634,2.6733.7705,2.5821 .5888-.2711.5888-.2711 .8611.8146.9517,1.5398 .1812,2.4463.1812,2.4463 1.7676.4529 1.9021.4982c.1359.0453.8165.2265.9517.0453s.8611-.8152.8611-.8152-.1346-.8586-.3157-1.1303zm-19.6388-53.8671c-.1135.0906-1.337.4529-1.337.4529s.6787-.9058.8152-.9511 .6117.0223.6117.0223 .0229.3846-.0899.4759zm5.5042-4.5308-.1818.9287-.34.8611-3.0803.9058c.1136-.0906.7699-.5658.7246-.5435s-.1582-.7029-.1812-.7253 1.7675-.634 1.7675-.634 .6111-.0676.6787-.1359 .0912-.7706.023-.7706-.9287.1818-1.0869.2264c-.1588.0453-.4759-.0676-.4306-.2488s.0676-.4982.2488-.5441 .8158-.1812.9517-.2035 .4759.0453.5894.0676 .4299.1588.4299.1588l-.1129.657zm10.6015,17.9179c0,.1359-.2035.8611-.2035.8611s-.4082-.6793-.4312-.8382-.1359-1.9481-.1582-2.061 .1365-1.6757.2041-1.7892l.294.2494 .2947,1.0869v2.4909z" fill="#e6e6e6"/>
  <path d="m569.6643,44.992c0,0-.8671-1.0768-.9328-1.5763s-.2495-1.1958-.0264-1.6425 .7356-.9064.9592-1.0773 .9847-.2236 1.2088-.2759 1.143-.0389 1.2347-.013 .762.5125.8931.749 .381.6963.3944.8407 .1579.5125.2495.6439 .4727.5518.4727.8801-.0523.4204 0,.5778 .5389.7097.5389.7097 .3542.0657.381.1574 .3417.4208.3417.4208l.394.013 .5384.4597 .3944.1972c0,0 1.6291.368 2.312.6569s.7893.5254.8939,1.1819 .2366,1.55.1838,2.1022-.0532.5518-.0532.9986 .0796,3.1263.0796,3.4679 .0264,1.0513-.1315,1.524-1.1296,4.1776-1.1296,4.1776 .0787,1.1037.0787,1.2087 .2361,2.286.2361,2.286l-1.4976-.1842-.1834.5782c0,0 .1051.9458.131,1.0509s-.0264.6833-.0523.7884 0,.2102.0787.4727 .1315.6046.1051.8935 .0528,2.1018.0528,2.1018 .4991,2.2337.6573,3.0216 .1834,1.7865.2097,2.0758 .3153,3.9674.3944,4.5716 .1578.394.0528,1.1824-.2366,1.1296-.2366,1.55-.0787,1.4976-.0787,1.4976l-.4731,1.2615-.1315.9986c0,0-1.4453,1.4712-1.9184,1.5499s-1.3925.3676-1.918.2097-.6833-.0264-.7361-.3676 0-.5254.0264-.6305 .5518-.6041.6041-.6833 .4991-.6829.5778-.7356 .3416-.4731.3416-.4731l-.0264-.6573c0,0-2.3652.0532-2.4703.1055s-1.156.157-1.7337.1834-1.1824-.0264-1.4185-.2361-.6305-.3685-.6041-.4467 .0787-.5254.0787-.5254 .8671-.394 1.3925-.4731 1.3925-.3153 1.3925-.3153 .0264-.762.368-1.1819 .8143-.6569.8143-.6569-.6833-.394-.7616-.4204-.2889-.3417-.2889-.3417-.368-.7884-.3417-1.3925 .2361-2.1018.2361-2.1018l.6041-2.3652-.4727-1.0773c0,0-.4467-.893-.4467-.9722s-.6569-6.253-.6569-6.5683-.0268-1.4976-.0268-1.4976l-.7356-.1315 .0268-2.2337 .4204-6.3585c0,0-.5259.7356-.8671.788s-.5518.2889-.6573.1315-.4991-.7616-.5778-1.0509-.1834-1.524-.0527-1.787 .9722-2.1805.9722-2.1805l.6046-.8671c0,0-.1315-.7356.1315-1.0249s.5518-.4995.5518-.4995 .1051-.4204.1838-.4991 .736-.5518.736-.5518l-.2889-.5254c0,0-.6833-.762-.7092-.8411s-.2102-.3416-.2102-.3416-.6578-.3395-.6837-.4839z" fill="#e6e6e6"/>
  <g transform="matrix(-.64754 0 0 .64754 713.04 -211.15)" fill="#ccc">
   <path d="m361.9682,450.0002c-.1-1.773-1.182-6.597-1.281-7.386s-1.771-4.824-2.067-5.711-5.415-3.051-5.415-3.051l-3.547-1.773-.688-1.084 .296-1.082 .491-.395h.986c0,0 1.377.591 2.264.197 .887-.395 0-1.28-.295-1.576-.296-.295-.296-1.377.098-1.674 .395-.295.098-1.576-.197-2.461-.296-.887.395-2.068.789-2.56s1.083-2.067 1.279-2.658-.592-1.772-.592-1.772-1.182-.396-1.477-.691-.393-.688-.787-1.377-2.168-.295-2.855-.1c-.689.197-2.068.1-2.658-.195-.59-.295-2.954.688-3.249.787-.296.098-1.478-.099-1.478-.099l-.197,1.279c0,0-.887.789-1.084,1.084s.492-.099.787-.197 0,1.182 0,1.182l-.391,2.167 .096,1.674c0,0 .396,2.066.396,3.15s1.478,4.629 1.478,4.629l.688,1.969-.198,2.658-.591.689-1.868,1.772-1.086,1.575-.982,3.545c-3.545,3.938.196,8.566.196,8.566l-.296,3.051-.295,6.697c0,0 0,2.165-.396,2.561-.392.393-.59,3.051-.982,3.445-.396.395 0,2.167 0,2.167s-.198.984-.296,1.772 .787,2.854.787,2.854 .887,4.332 1.182,4.924c.296.591 1.082,3.544 1.181,4.036s0,3.349-.194,3.939c-.199.591 1.772,6.695 1.772,6.695l.786,2.462c0,0 .195,3.347.195,3.742 0,.393-.885,3.839-.885,3.839l-.592,3.15 .789,1.084-.789.788-.982,1.674-1.576,2.954c-.688,1.771 1.773,1.871 2.463,1.871s4.527.491 4.527.491 .1.985 0,1.379 .295,1.182.494,1.575 .392,1.576.392,1.872c0,.295.099,1.082 0,1.378-.097.295.296,2.461.296,2.461s.395,1.969.689,2.166 2.462.099 2.855.295c.395.198 1.281-.393 1.871-.885s1.672-1.87 1.672-1.87 .79-1.084.691-1.577 .689-.886.986-1.378c.293-.493.591-.493.688-1.378 .098-.887-.197-.789-.592-1.676s.1-3.148.1-3.839 1.477-5.908 1.576-6.893 .393-1.279.59-2.462 .197-8.763.098-9.847 .1-5.415.1-6.399 .195-1.872.195-2.363 .495-.886 1.086-1.772-.1-1.083-.297-1.575-.493-1.674-.69-2.462 .101-3.742.101-4.431 .195-1.674.296-2.461 .195-1.97.195-2.856 .099-2.067.195-2.954 .591-1.379.888-2.067c.295-.688.789-1.084 1.576-1.675s1.181-6.301 1.281-7.778c.095-1.473-.496-4.034-.592-5.805zm-4.629,9.747c0,1.281-1.082,2.658-1.082,2.658s-.395-.491-.691-.984c-.295-.492-1.181-1.674-1.869-2.658s-.689-3.052-.395-4.136 1.773-6.498 1.773-6.892l1.377,2.166c0,0 .985,1.97.985,2.56s.296,1.673.395,2.068c.097.394-.493,3.939-.493,5.218z" fill="#ccc"/>
  </g>
  <g transform="matrix(.92319 0 0 .92319 85.577 -274.5)" fill="#999">
   <path d="m378.8606,511.3535c-.336-.268-1.475-2.01-1.742-2.747s-2.477-2.88-2.477-2.88l-.336-1.339c0,0-.713-.306-.895-.251 .172-.352.827-2.161.827-2.161s.067-3.148.067-3.416-.27-5.359-.336-5.761-.335-4.219-.268-4.822-.334-2.545-.201-2.813c.135-.269-.133-6.229-.133-6.229s.334-2.546.267-2.747 0-4.89.067-5.493-.334-7.771-.334-7.771l2.143-.804c0,0-1.34-6.832-1.475-7.3-.134-.469-.803-4.622-.803-4.622s1.74-1.809 1.942-1.876 4.756-5.09 4.89-5.291 .133-2.479.133-2.479l-1.941-6.095c0,0-2.076-5.493-2.145-5.693s-.869-5.225-.937-5.627-.938-2.009-.938-2.009-2.345-.536-2.546-.536-3.482-.938-3.75-.938-2.344-.335-2.344-.335l-1.007-1.205c0,0-.468-1.273-.803-1.809s-.804-.469-.804-.469l-.201-1.541c0,0 .335-1.541.535-1.608s.535-.938.603-1.272 .134-1.072.269-1.474 .201-.737.335-1.339 .134-1.005.2-1.273-.268-.871-.736-1.474-.335-.603-.067-1.072-.468-.669-.937-1.071-1.072-.67-1.607-.938c-.536-.268-1.406-.402-1.877-.469s-1.004-.268-1.473-.268-2.344.603-2.611.67-1.14.871-1.475,1.072c-.334.201-.671,1.339-.671,1.339s-.938.804-1.204,1.072 0,1.607-.067,2.143 .269,2.01.2,2.211 1.34,1.943 1.34,1.943l1.004,3.215 1.072,3.148-.199.402c0,0-4.288,2.479-4.556,2.479s-4.086,2.478-4.086,2.478-.335,2.947-.268,3.148-.269,4.889-.269,5.09-.336,4.153-.336,4.488l-1.003,2.144v3.081l1.474,2.881c0,0 1.54,1.071 1.742,1.138s1.807-.804 1.941-1.004 1.541-3.617 1.541-3.617l.065,1.741 .337,3.349-.471,2.679-.602,3.014c0,0-1.809,10.985-1.741,10.784s-.47,8.038-.604,8.574 .067,4.555.134,4.488-.871,3.751-.871,4.086c0,.334-.67,6.095-.803,6.363-.135.268-.402,10.181-.402,10.181l-.336,6.363-.535.469c0,0-1.072,1.675-1.272,1.942s.2,1.207.2,1.207l.938,1.741 .134,2.277c0,0-.201,3.015-.201,3.215s-.066,2.076-.066,2.076l1.541.067 4.889-.335 .604-1.675-.469-3.147 .267-2.01 1.206-2.412c0,0-.368-.921-.398-.819 .024-.297.199-3.534.199-3.534v-2.278c0-.2-.471-3.483-.471-3.483l.738-3.618 .535-3.215 1.674-7.234 5.694-15.607c0,0 .603,1.608.669,1.809s.068,2.411.068,2.411l1.205,1.139 .603,6.43c0,0 1.606,3.617 1.675,3.483s.402,5.895.402,6.163 .602,8.038.602,8.038-.2,3.684-.2,3.885-.937,3.081-.937,3.081l.535.938 1.138,3.55c0,0-.134,3.818-.2,4.019s2.144.67 2.21.938 3.147,1.139 3.147,1.139 1.742,1.072 2.078,1.072c.334,0 3.414.2 3.616.2s1.339-.468 1.339-.468 .672-1.608.604-2.077c-.064-.467-.867-.935-1.201-1.203zm-7.568-68.255-.336-1.942 .268-2.612 .938-1.339 .603.737 .268,1.406 .402,1.674-2.143,2.076z" fill="#999"/>
  </g>
  <path transform="matrix(.90742 -.42023 .42023 .90742 -17.294 -.73855)" d="m338.48 226.88h1.7056v79.479h-1.7056z" fill="#999"/>
  <path transform="matrix(.90742 -.42023 .42023 .90742 -17.294 -.73855)" d="m316.26 235.36h48.34v24.414h-48.34z" fill="#fff" stroke="#999" stroke-width=".9133"/>
  <g transform="matrix(.15933 0 0 .15933 394.82 137.05)" fill="#4d4d4d">
   <path d="m171.579,307.568c3.022,1.677 13.131,12.747 15.16,17.191 2.019,4.433 6.107,9.977 11.122,12.732 5.05,2.825 30.308,34.393 37.358,38.835 7.087,4.455 7.59.565 7.59.565 1.005,11.623 2.52,13.858 2.52,13.858l5.069,25.49c-5.54,6.1-13.626,94.25-15.632,110.337-2.083,16.09-11.649,41.035-13.686,58.757-1.983,17.724-19.222,75.959-28.234,95.916-9.129,19.998-11.628,89.258-11.628,89.258 1.474,8.877 10.577,9.957 10.577,9.957 8.585,28.302 19.193,24.998 19.193,24.998 8.567-1.681 10.093-19.944 10.093-19.944 5.055-1.155 14.139,5.032 23.777,2.744 9.588-2.298 8.063-23.832 13.127-50.486 5.014-26.571 9.085-55.393 14.598-62.651 5.59-7.212 18.235-86.456 19.743-102.547 1.521-16.06 20.732-108.703 22.707-124.16 2.048-15.557 11.149-10.568 12.111-5.013 1.021,5.556 12.168,65.402 9.133,73.792-3.023,8.258 1.023,51.502 1.023,63.14 0,11.63 6.559,65.456 4.536,81.534-2.047,16.064 12.108,105.89 12.108,111.966 0,6.092 6.081,8.302 6.081,8.302 3.551,12.749 21.719,14.967 21.719,14.967 13.672-2.742 9.085-21.044 9.085-21.044 2.539-.553 22.208-4.985 22.208-4.985 5.573,0 2.562-6.646 2.562-6.646-2.061-7.214-4.06-22.181-2.061-40.48 2.061-18.279 3.038-34.42.518-43.79-2.517-9.447-7.558-54.355-7.558-67.08 0-12.743-7.475-60-7.475-60-4.922-16.6-4.612-49.391-4.612-69.979 0-20.642-8.014-89.958-8.014-89.958 2.177-2.688 3.378-8.452 2.795-12.2-.618-3.679-.322-12.83-.322-12.83 11.719-3.379 11.719-9.479 11.719-9.479s3.994-8.777 9.245-19.257c5.23-10.525 16.621-38.212 20.622-57.484 4.002-19.249.634-21.941-2.133-27.069-2.793-5.033-25.886-32.103-27.734-34.445-1.86-2.386-14.191-21.332-19.411-26.079-5.25-4.729-6.773-12.823-12.627-23.638-5.865-10.852-11.699-13.89-15.703-14.556-2.405-.406-8.353-2.911-12.899-4.9l.707-1.461 2.889.197-2.802-.518 1.118-2.997 1.044-.244-.94-.184c.938-3.158 1.578-6.973 1.737-11.592l2.079-4.421c-.337,5.935-1.149,11.458-1.149,11.458 .956-2.013 1.178-6.815 1.178-11.481l2.427-4.582 .229-.534c-.844,7.731-2.083,13.068-2.083,13.068 3.56-6.706 4.996-13.638 5.203-20.063 .746-2.377 1.218-4.5 1.442-6.623 .619,8.189-.648,16.315-.648,16.315 1.807-4.834 1.61-11.232.746-17.056 .384-4.271.021-8.38.021-13.206l-.021-2.298c1.927,5.295 2.474,10.35 2.474,10.35 .208-4.063-1.071-8.682-2.571-12.616l-.334-4.182c.319-2.975.153-5.719-.412-8.126 .297,2.495.297,4.955.182,6.958-.409-2.427-1.134-4.073-2.109-6.306-1.854-4.414-2.454-7.441-2.454-7.441l-.199-3.029c1.994,2.662 3.719,5.906 4.581,9.818-.472-4.436-1.752-9.225-4.764-12.939 .07-3.13-.485-6.453-2.797-8.535-1.656-4.922-4.661-9.431-9.727-11.826 3.635.064 3.848-1.7 3.848-1.7l-4.141,1.49-.656-1.49c-3.407-6.077-7.177-9.639-10.769-11.656 1.655.184 3.46.652 4.791,1.535-1.169-.915-3.085-2.003-5.897-2.164l-4.325-1.55 .119-1.589-.766,1.448-2.616-.313c-1.713-1.246-1.388-3.926-1.388-3.926-.744,2.33.182,3.401 1.023,3.855h-1.251c-.774-1.415-3.364-4.858-9.832-.523h-.521c-2.292-1.417-4.431-1.831-6.09-1.831 1.707.222 3.588,1.049 5.2,1.844-3.723.207-7.424,1.47-10.787,3.324-15.151,1.829-19.236,11.545-19.236,11.545 4.247-7.855 12.942-10.544 18.94-11.458-5.25,2.936-9.929,7.131-13.427,11.173-3.788,2.265-8.376,5.73-12.397,10.916 2.514-3.148 6.381-6.885 11.816-10.175-2.845,3.368-4.846,6.447-5.527,8.369-.589,1.503-1.316,3.571-2.178,5.924-1.611,1.899-3.226,4.165-4.5,6.559-8.014,5.969-8.014,15.369-7.493,19.695-6.263,10.345-12.351,22.254-12.629,29.898 0,0 1.162-5.584 5.455-10.674-1.234,3.77-2.155,7.81-2.595,12.213 0,0 1.026-5.818 3.316-13.016l.417-.451c-.798,3.337-1.138,6.495-.502,9.151 0,0 1.933-6.798 5.314-12.897l1.546-.828c-.572,2.377-1.157,4.794-1.614,7.083-1.117,2.708-2.301,5.225-3.499,7.087 .839-1.172 1.911-2.752 3.022-4.67l-.522,3.049c-2.342,3.037-4.842,7.289-6.588,13.039-4.678,2.344-7.606,3.562-4.702,3.671l3.888-.459c-.729,3.434-1.21,7.309-1.21,11.67-2.314-.459-4.492-2.042-6.244-5.677 0,0 .5,6.186 4.061,8.016l-3.399,2.05c-2.064-.74-3.979-1.982-5.685-3.966 0,0 1.506,2.678 4.501,4.729-1.865,1.173-3.771,2.547-5.772,4.04l-.015.079c-3.393-1.375-6.292-3.901-7.836-8.324 0,0 1.429,5.471 5.315,9.303l-2.5,1.187c-4.888-.622-8.091.363-9.797,1.254 1.784-.601 4.569-.469 7.619-.036-6.907,3.998-12.403,9.951-13.291,18.816 0,0 3.725-11.526 15.809-18.412l.137.022c-7.542,6.904-14.107,16.266-13.966,27.692-3.363,7.547-7.229,16.446-10.541,20.095-4.571,4.946-5.564,13.848-10.605,21.072-5.064,7.179-25.788,53.748-27.774,61.492-2.045,7.768 2.514,22.181 5.529,23.857zm173.684-246.939c1.2,1.578 2.14,3.714 2.21,6.822l-.732-.906-.549-1.549-.929-4.367zm6.697,228.642c2.505-14.424 2.505-28.847 2.505-34.359 0-5.534 10.106-14.967 9.6-19.967 0,0 16.66,16.11 20.72,18.321 4.02,2.222 14.177,12.756 15.147,18.268 .993,5.557 0,6.667-2.548,14.399-2.536,7.812-9.082,13.333-10.6,24.958-1.525,11.676 1.518,7.754-3.523,14.979-5.068,7.211-10.129,16.054-10.129,19.436 0,3.289-11.628-32.16-17.144-36.646-5.595-4.412-6.634-4.97-4.028-19.389zm-9.579-231.016zm-2.593,88.388h.159l-.081.295-.078-.295zm-.02-1.273 .225-3.282 2.389-4.826c-.369,2.918-1.003,5.764-1.996,8.347l-.618-.239zm-.177-90.697-3.416-4.927c1.98,1.765 4.028,4.27 5.79,7.695l-.265-.121-2.109-2.647zm-5.253,93.983 2.961-2.68 1.2.461 .746,1.677-1.343,2.178c-2.112-.928-3.564-1.636-3.564-1.636zm-30.139-118.08c2.431-.805 5.858-1.462 7.571.588-1.662.166-2.687.511-2.687.511-1.611-.622-3.267-.966-4.884-1.099zm-36.881,34.356-2.097,1.189c.913-1.557 2.097-3.368 3.431-5.262l-1.334,4.073zm-10.177,21.11c-.319-9.495 3.108-15.235 6.883-18.568-.931,1.884-1.661,3.93-2.019,5.999 0,0 .744-2.79 2.907-6.752l2.274-1.59c-1.184,3.466-2.369,7.179-3.462,10.677-2.064,3.023-4.333,6.534-6.583,10.234zm-26.116,67.734 2.814.634c-4.016,3.874-7.705,7.381-7.705,7.381s-3.54,3.862-7.56,11.639l-2.342,4.834c1.78-5.519 5.892-15.098 14.793-24.488zm3.903-.436-2.681-.837 .435-.459 2.246,1.296zm6.807-6.6-.285.308-4.639,1.292 3.136-2.505 1.788.905zm-2.673,2.684-1.337,1.237-1.934-.369 3.271-.868zm5.859-6.398-1.107,1.535-.713.781-1.881-.421 3.071-2.079 .63.184zm4.519-15.121 1.933-.915c-1.271,4.205-2.858,8.309-4.287,11.623 .471-3.179 1.197-6.902 2.354-10.708zm4.361-10.052-1.289,5.226-1.657.873c.812-2.068 1.817-4.15 2.946-6.099zm-49.374,170.892c3.539-6.112 20.731-33.833 28.776-51.022 0,0 31.818,65.444 21.732,110.357 0,0-12.629-14.422-16.186-22.21-3.531-7.736-11.59-7.226-16.626-11.632-5.074-4.425-12.651-15.537-12.651-15.537s-8.595-3.879-5.045-9.956zm12.622-134.73 1.612-1.043-1.612,1.043zm76.564-124.952c0,0 1.186-.381 2.91-.364l-2.91.364zm34.454,6.228 1.074,1.057-1.074-1.057zm1.281,1.329-.206-.272 .206.272zm-69.25,26.928c1.386-2.863 3.01-5.293 4.72-7.505-3.448,4.251-4.72,7.505-4.72,7.505zm-7.953,50.434-1.747,2.21 1.747-2.21z" fill="#4d4d4d"/>
  </g>
  <g transform="matrix(.49971 0 0 .49971 183.37 36.536)" fill="#4d4d4d">
   <path d="m351.7834,173.3471c-4.5237.2089-6.5487,2.9776-7.0045,4.0411-.4861,1.1343-7.1321,11.0314-7.1321,11.0314l-4.0411,5.3455c0,0-.0009.2192 0,.241-.7211,1.1207-1.7096,2.7608-2.1127,3.9702-.6482,1.9446-.6522,2.0985-.6522,2.0985l-.4821,2.1127 .9784-.8082 .8082-2.7508 1.4888-3.8284c.0377,1.1583.096,3.3775-.0284,5.1187-.1621,2.2687-1.7866,4.2112-1.7866,4.2112v4.8634c0,0-.4841.8102-1.9425,1.1343s-1.9426.004-.8082.6522 1.6164.4821 1.6164.4821l-1.4605,3.0769c0,0-4.7014,4.8594-5.9978,6.4799s-11.8254,12.8038-11.8254,12.8038-6.3239,6.966-6.3239,9.8829 3.0769,5.5157 3.0769,5.5157 9.895,12.3136 10.7052,13.2859 1.1303,3.7332 1.6164,6.65 6.806-2.5948 6.806-2.5948 1.6225,1.4564 2.5948,1.9425 2.4246-.6522 2.4246-.6522 .3322,7.1341.1702,8.5926-.6583,13.7679-.4963,23.9769-6.6358,44.7352-6.6358,44.7352l6.4799,1.6164c0,0-.8183,5.1835-.1702,11.0172s4.5373,24.1471 4.5373,24.1471l.4963,8.4224-.6522.3261-.6522,2.1127 .1702,1.9425c0,0-.8143,2.2687-.6522,4.5373s.9784,3.8851.9784,3.8851 .3119,2.9128 1.4463,5.0194 6.65,3.403 6.65,3.403l3.247-.156-1.4605-7.1321-.6522-2.7508c0,0-.3261-3.8972-.3261-8.1105s-2.1005-9.2367-2.4246-13.612 .9743-8.7424 1.4605-13.4418 1.1343-18.1493 1.1343-18.1493 7.6081.476 14.5762.6381 13.1299-.8082 13.1299-.8082 .316,4.5454.9642,8.1105c.6482,3.565 2.2788,6.9599 2.7649,8.9045l3.7291,14.9164-.4963,8.2664c0,0-2.8936,4.5253-2.4246,6.6358 .3241,1.4584 1.9426,4.2112 1.9426,4.2112l.156,9.2448 1.1343.6381c0,0-.1621-7.7762 0-8.7485s.8163-.314 2.1127.4963 1.6245,7.6162 1.7866,9.0746 4.0411,1.7724 4.0411,1.7724l10.7052-.6381-6.65-5.1896c0,0-1.1343-3.561-1.1343-5.0194s-.6522-6.33-.6522-7.3023-.476-2.7528-.6381-4.2112-1.4605-9.4008-1.4605-9.4008-.32-28.6722-.4821-30.1307-.6522-4.3814-.6522-4.3814l2.7508-.9784c0,0-1.9446-7.1281-2.2687-8.7485s-1.6124-10.0469-3.2328-20.418-9.4008-36.9367-9.4008-36.9367v-5.6716l.9642.156c0,0-.3261-4.0492-.3261-6.4799s-2.4246-11.6694-2.4246-11.6694-.3261-2.5928-.3261-3.403 .9784-3.559.9784-3.559 4.0492,7.1281 6.4799,6.4799c5.0494-1.3465 8.2644-4.0593 6.806-19.4538-1.7456-18.4257-4.2112-24.7851-4.2112-24.7851l-5.8418-1.4605c-1.9446-.4861-7.444-2.5948-7.444-2.5948l.6381-1.7866 .4963-3.403 1.7724,2.2687-1.2903-3.559 .4821-1.7866-.6522-2.2687c0,0-.4801-3.2409-1.2903-5.6717s-3.085-6.6419-5.5157-9.8828-6.6399-5.9917-11.8254-6.1537c-.3241-.0101-.6342-.0139-.9358,0zm18.4329,20.418 .8224,1.6164 .3119,2.1127-.8082,1.4463-.3261-3.8851v-1.2903zm-29.3225,2.0985-1.4605,3.0769-2.2687,1.4605 1.7866-3.2328 1.9425-1.3045zm28.6844,4.0552v4.2112l-.3261.8082-1.3045-.6381 .8224-1.9567 .8082-2.4246zm-33.7038,3.559-.8224,2.5948-1.4463.9784 .8082-1.9425 1.4605-1.6306zm.3119,3.0911 .3261,1.7724-2.0985.4963 1.7724-2.2687zm-4.4239,24.5866c.2856.0109.5266.1256.709.3686 .9723,1.2964 3.559,8.4224 3.559,8.4224l2.5948,6.6358 1.4605,3.403v4.3814l-1.4605.3261-5.6716,5.9978c0,0-3.5711-5.3536-5.5157-6.65s-4.6973-3.7291-5.3455-4.8634-3.5671-4.2072-2.5948-5.8276 4.2132-7.4542 6.806-9.0746c2.1066-1.3166 4.2215-3.1667 5.459-3.1194z" fill="#4d4d4d"/>
  </g>
  <path d="m585.044,115.4322c-.2815-2.3865.6129-7.8329-.7733-9.7217-1.5906-2.1691-6.1117-.9277-8.3021-.1331-.0998.9966-.4977,1.9838-.9289,2.9103-.8173.1414-3.1265.0131-3.7466.4799-1.7676,1.3293.1603,1.1143 1.2033,1.8199 .9954.6735 1.8032-.0772 2.4672,1.4896 .5191,1.2223-.398,2.7131-.8054,3.8547-1.0656,2.9947-1.1463,3.3095.1247,6.1176 1.7106,3.7727-.6783,6.0713-.8137,10.0828-.2031,6.0487 1.258,12.4455 1.9054,18.5097 .3267,3.0576-.6759,4.7991-1.1665,7.6512-.6438,3.7478.1627,7.9066 1.4231,11.4453 1.3174,3.6991 3.3914,10.8371 2.181,14.6645-.98,3.1039-5.5961,5.3467-7.4825,8.1869 3.9545,1.9481 8.9543-.8208 12.9218.2566 .4193,2.2974.5334,4.7076.9254,7.0133 4.6969-1.296 9.7264-5.7102 9.2524-11.1507-.2423-2.788-1.6702-6.613-2.0527-9.8535-.4787-4.0448-1.4896-7.6595-2.2665-11.5748-1.4409-7.2556 1.8495-12.6308 2.428-19.6369 .215-2.6134-.9194-4.7385-1.1523-7.1309-.2696-2.7737 1.7901-4.1826 2.1323-6.8897 .272-2.1525-.2364-4.5603-.5013-6.7472-.1996-1.6547.2994-4.2443-.2696-5.5106-1.2734-2.8343-7.429-4.4498-6.9052-7.8424" fill="#999"/>
  <g transform="translate(-17.294 -.7385)">
   <path d="m400.5156,222.7904c.627-1.1445 2.1124-10.3467 2.6127-11.6517s4.5208-8.0355 4.9211-8.4372 1.4064-.8019 1.4064-.8019 .7018-2.0096.7018-2.7128 .806-5.9273.9047-6.3275 .9033-5.1226 2.1083-6.2275c1.2063-1.1049 4.3193-3.7162 5.4242-3.113 1.1076.6031 3.2172,2.1096 3.2172,2.1096 .3016.6018 3.3118,5.4228 3.5133,7.4324s.403,5.1226 1.3064,6.429 2.1069,2.0082 3.2145,2.9129c1.1035.9047 1.5065,1.7066 1.6079,2.1096s1.405,1.4064 1.9068,2.6113 1.4078,7.8326 1.4078,10.0437 0,4.5195.0987,6.0259 .6018,4.0191-.5017,5.0225-2.4112,2.2097-3.2131,2.7128c-.806.5031-1.3063,1.0034-1.3063,1.0034s-.1014,1.8081-.1014,2.7128-.2001,2.6113.403,3.7176c.6018,1.1035.9033,1.9081.9033,2.4098s.3016,2.2097.3016,2.5113 1.6079,12.8566 1.6079,13.9614-.001,2.2097.2001,3.6161l.2001,1.4064c0,0 .403-.9047.403.8033s1.405,6.3275 1.2049,7.9355 .7018,5.2227.3029,6.3275c-.403,1.1062.8019,1.3064 1.2049,2.5113s.9033,1.5065.403,2.0096-1.0048.7032-.6031,1.3064 .6031.3016.6031,1.2049 .4016.9047.6018,1.2049 .7018,1.405 1.1049,1.8081 1.8067,1.708 2.3098,1.708 2.5113,1.0034 2.6127,1.708 .6004,1.1035.2001,1.405-1.8067,1.1049-2.4098,1.0048-3.0143-.2001-3.3159-.6018-3.2131-2.0096-4.3193-2.3111c-1.1035-.3016-2.0082-.8033-2.3098-1.0034s-.4003-.6018-.5003-1.1049 .3016-1.1062-.3016-1.708-.5017-.9047-.9047-1.3064-.5003-1.1049 0-1.708 1.405-.4016.8033-1.6066c-.6018-1.2049-2.1096-6.2275-2.61-7.6325s-1.4051-5.1226-1.5079-6.0259 .2001-2.5126-.403-3.1144-1.405-.5017-1.7066-1.7066-.4016-1.7094-.5031-2.5113-1.3036-3.9177-1.8081-4.8224-3.1117-5.2227-3.1117-5.2227l-.7046-1.0034c0,0 .5003,7.1308.3016,9.2404s-.4003,3.5147-.5017,4.2193-.3016,1.1049-.5031,1.708 .1001,2.9129.1001,3.7162 .1014,2.7128.2001,3.7162 .3043,1.6052.2015,2.6113c-.1001,1.0048-.1001,1.1049-.3016,2.1096s-.5031.403-.2015,1.708c.3016,1.3063.8033,1.4064 1.0048,1.8081s.6018.5017.403,1.2049-.2001.6031 0,1.2049 .2001.3016.2001.6031 .0987-.4016 0,.3016 .3016-.5031-.1014.7032c-.4003,1.2049-.4003,1.4064-.4003,1.708s1.305,5.2227.5017,5.9273-.9033.6018-1.8081.5017-3.8149-.1001-4.0191-1.7066-.9033-2.5126-.8019-3.2145 .6018-1.4064.5003-2.0096 .2029-1.2049-.3016-1.2049-1.0021-1.2049-.6018-1.7066 .8033.4003.403-.5031-2.1096-5.4256-2.3098-6.529-.6031-4.1178-.6031-4.9211-.1001-8.3371-.3016-9.8436-.3043-5.9259-.4016-6.7292-1.2063-2.9129-1.6093-3.516-.5003-2.0096-.6018-3.013-.5003-1.7066-.8019-2.2097-.6031-1.5079-.7046-2.0096-.5017-2.0082-.5017-2.0082l1.7066-6.026c-.0772-1.8654 6.5418-10.9479-2.8847-7.9925-.7009.0684-4.1139-2.5503-2.841-4.8736z"/>
   <path transform="matrix(.98655,-.16344,.16344,.98655,0,0)" d="m370.55 209.96h1.7056v88.644h-1.7056z"/>
   <path transform="matrix(.98655,-.16344,.16344,.98655,0,0)" d="m338.55 212.28h67.087v32.743h-67.087z" fill="#fff" stroke="#000" stroke-width="1.2459"/>
  </g>
  <g transform="translate(-17.294 -.7385)">
   <path d="m523.5378,127.134 4.5314-3.1814 2.7961-1.4462-.193-4.0493-.7713-2.5066-.0965-3.278c0,0 .4822-2.6993.5787-2.9888s1.5426-2.0248 2.0248-2.2175 1.5423-.7713 1.9283-.7713 2.5066.0962 2.7958.1927 2.5066,1.9283 2.5066,1.9283 1.2535,1.4462 1.3496,2.121 .0965,2.9888.0965,2.9888-.0965.4818-.0965,1.0605-.6748,1.2535-1.0605,1.5426-1.2535.8678-1.0605,1.157 1.0605.8678.7713,1.5426c-.2895.6752-.4822,1.0605.2892,1.35s3.2779,1.4461 3.9528,1.6391 1.8318-.0965 2.121,1.0605 2.7958,5.8811 2.7958,6.1702v3.6636 3.7601l.2892,1.7353c0,0 .3857,2.6996 0,3.0853s-1.2535,1.6392-1.3496,1.5426 .193,9.0625 0,9.5447-1.2535,1.7353-1.2535,1.7353 .2892,2.2175.193,2.6996 .3853,7.6167.3853,7.6167-.3853,4.2419-.5783,4.7241-1.5427,10.2195-1.6392,11.0873-.193,4.1454-.2895,4.6276-.5783,12.63-.5783,12.63-.2895,3.6639-.1927,4.1454-.5787,1.9283-.9643,2.121-.9643.0965-.7713,1.157 .4822,1.4461 1.0605,3.1818 1.0605,2.7954.2895,2.7954-3.7601.4825-4.7244.0965-1.8318,0-2.5066-.7713-1.0605-1.928-1.157-1.6388 .7713.8675-.5783.4822-1.35-.3857-1.5426-1.0608-.5787-1.0605.5787-2.121 1.5426-1.7353 1.5426-1.7353-.3857-2.4101-.3857-2.8926 .193-1.5423 0-1.928-3.3744-10.0265-4.0493-10.509-1.8318-3.5671-2.0248-4.3384-2.8923-16.6792-2.7958-17.0649 1.157-7.3272.7713-7.2307-.5787-7.1345-.4822-7.6167 .8678-5.5919.7713-5.8811-.0962-1.2535-.5787-1.5427-.964-.6748-2.121-1.5426-1.157-2.5066-.6748-2.8923 2.2175-1.1566 1.7353-1.5427 .5787-.9643.0965-2.0248-1.157-4.9167-1.35-5.3993-.1927-3.4706-.1927-3.4706l-.1923-1.5423z" fill="#999"/>
   <path transform="rotate(9.25)" d="m554.28-19.626h1.7056v94.916h-1.7056z" fill="#999"/>
   <path transform="rotate(9.25)" d="m531.57-15.502h48.34v23.974h-48.34z" fill="#fff" stroke="#999" stroke-width=".905"/>
  </g>
  <path d="m519.567,182.0402c0,0 1.4138-2.6251 1.4138-2.9283s1.1106-1.6152 1.7163-1.9184 2.6251-1.4134 3.1301-1.5145c.505-.1007 8.1785-5.1491 8.1785-5.1491l2.2212-2.3223c0,0-.1011-5.4523-.2018-5.7552s1.2113-3.7357 1.817-4.241c.6057-.5046 1.7163-1.3124 2.4233-1.5145s2.2216,0 2.6255.3032 3.8368,3.5339 4.2403,4.1396 1.0103,2.0195.9089,2.4233 .1011,1.1106.3028,1.5145 .4039.606.2018,1.4134 .5053.9088-.2018,1.8173-.6057.6057-.6057,1.3127-1.7166,2.524 0,.7067 2.7262-2.9279 3.029-3.4329 1.2113-1.9184 1.5145-2.3223 1.2113-7.7746 1.3127-8.2792c.1007-.505.4035-5.4523.505-5.7552s-.2021-8.2796-.2021-8.2796-.8078-1.8173-1.0099-2.2212-.4035-3.3318-.4035-3.3318-.6057-2.1205-.2021-2.2216 .7071-1.918.6057-2.2212-.3028-3.1301-.3028-3.1301 .505-.4039.9085-.3028 .8078,2.1202.7071,2.524 .7071,2.6251.7071,2.6251 .4039-.606.8074-.8078 1.2117-.6057 1.3131-.1007 .6057,1.0099.6057,1.0099 .3028-.1011.7067,0 1.4138.3028 1.4138.3028 1.5145-.3028 1.2113.3028-.6057.7071-.9085,1.2117c-.3028.505-.7067,1.5145-.7067,2.1205s.4035,2.1202.2018,2.6251c-.2018.505-.4039,1.4138-.3028,2.4233s.3028,2.524.3028,3.1301 .1011.9089.1011,1.6156 .4035,11.2075.4035,11.9142-.505,4.3417-.505,4.7456-.4039,3.1301-.3028,3.8368-.1011,2.4233-.1011,3.3318-1.1106,6.4619-1.1106,6.4619l-.4035,3.2308c0,0 1.6156,14.1358 1.5141,14.7414s.3032,4.6442.4039,5.3513 1.2117,4.0385 1.3127,4.4428 1.4138,3.2308 1.4138,3.2308-.9089,1.3127-1.111,1.3127 1.7166,17.5683 1.7166,17.5683 .1007,5.6545.1007,5.9573 1.0099,8.2792.9089,8.5824-3.1301,3.3318-3.1301,3.3318-1.4134,4.4428-1.4134,5.0484-1.0103,5.2506-1.0103,5.2506 1.6159,4.6446 2.2216,5.2506 .2021-.1007.6057.6057 1.5145,4.5438 1.0099,4.7456-5.0484,1.0099-5.0484,1.0099l-4.5435-3.8368c0,0-1.0099-3.5343-1.2117-3.7357s.2021-1.2117.5053-1.9188 .8074-2.7262.9085-3.1301 .3028-2.6251 0-3.7357-.8081-4.5435-.8081-5.6541-.8074-3.9375-.6057-4.6445-1.7166-7.7746-1.817-8.6834-1.2117-6.6636-1.0103-7.0679-.5422-3.3026-.7067-3.029c-.6057,1.0099-1.7163,12.7223-1.7163,13.0252s0,4.8463.2018,5.3509c.2021.5053.2021,3.2311.2021,3.2311s-1.817,1.6159-2.0195,1.4134 .1011,9.8951.1011,10.1979 .505,5.2506.6057,5.8562 .606,4.1396.606,4.1396-3.6354.9088-4.14,1.111c-.505.2021-5.6541,1.0099-5.6541,1.0099s-3.1301-1.0099-2.8272-1.1106 .4035-2.9279 1.7166-3.0294 1.5141-2.3223 1.5141-2.3223l1.7163-2.6251c0,0 1.0099-1.1106 1.0099-1.4134s.2021-1.0099.1011-1.6156-.3028-2.9279-.6057-3.8371-1.7166-5.2506-1.8173-5.8562-1.3127-2.7262-1.1106-3.3318-.2021-8.5824-.1011-9.087c.1011-.505-1.1106-5.9573-1.1106-5.9573s-1.5145-3.3322-1.4134-3.7361-.2021-6.7651-.2021-6.7651l.505-3.029c0,0 .2018-12.8231.3028-13.4291s-.3028-6.3612-.3028-6.9668-.4039-3.5339-.7071-4.0389-1.0099-2.2212-1.0099-2.2212-5.8562-.7071-5.9569-1.0099-4.4428-1.8173-4.8467-2.2212-1.5141-2.8272-1.4134-2.4233l.1014.4043z" fill="#4d4d4d"/>
  <g transform="translate(-17.294 -.7385)">
   <path d="m490.3362,205.8959c-.3967.3967-.7933,2.4788-.7933,2.4788s.4959,5.1566.4959,5.4539-.2974,1.9833-.2974,1.9833-.2974,6.4454 1.3881,6.6439 2.6774.1981 3.074.3967 .6944-.793.7933-.3967 .9918,3.1733.9918,3.4707 .8926,2.5781.6941,3.2721-.8926,8.1313-.9915,9.0235-1.19,5.9495-1.19,5.9495-.3967,2.6774-.1981,3.074-.2974,5.6521-.3967,5.9495-1.2892,9.5194-1.4874,9.8168-1.6859,4.3629-1.6859,4.3629l-.3963,8.032 .0989,4.3632c0,0-.0989,2.7762.1985,3.0737s.6941,1.9833.6941,1.9833 .7933,3.2721 1.0907,3.5696 1.6859,2.1814 1.884,2.5781 4.4621,6.3462 4.3632,6.6436 .3963,4.661.3963,4.661l.4959,2.4788-.5952,2.8755c0,0-.5952,3.6688-.2974,3.8673s2.0822,3.2725 2.6774,3.3714 1.9833,0 2.3799-.4959 1.4874-2.4788 1.4874-3.074c0-.5948.8922-1.7848.7933-2.8755s-.4959-1.5866-.2974-1.9833 1.6855-3.1729 1.884-3.4707 .8926-3.3714.7933-4.1647-1.884-3.7684-1.884-3.7684-3.3718-8.1309-3.4707-8.4284-.6941-2.6773-.5952-3.074 .4959-2.5781.7933-2.9747 .7933-7.6354.7933-8.2302c0-.5952 1.6859-4.6606 1.6859-5.0573s1.0907-4.1647 1.3881-4.561l.2974-.3967c0,0 1.0907-2.4788 1.0907-2.1814s2.7766,9.1228 2.7766,9.1228l.5952,6.2473 .4959,8.6272c0,0 .1981,2.8755 0,3.3714s-2.2807,11.8994-2.2807,11.8994l-.8922,3.5696-.8926,3.6688c0,0-.2978,2.0825-.3967,2.8755s-.0992,3.471-.0992,4.1647-.7933,2.8755-.3967,3.5699 .6944,1.0907 1.0907,1.4874 1.19,1.6859.8926,1.884 0,.694.3967,1.2892c.3967.5948.7933.4959.9915.7933s.6944.8922 1.5866.7933 3.3714-.1985 3.8673,0 2.4788-.2974 2.4788-.2974 .8922-.6944.5948-1.6855-.4959-2.1818-.8922-2.3803-.6944-.7933-1.0907-1.2889-.2978-1.2896-.1985-1.587 .5948-1.1896.4959-1.9833-.5952-1.6855-.5952-2.0822 .5952-.4963 1.19-1.19 1.3881-2.38 1.4874-2.6777 .5952-.5948.5952-2.5777-.2978-3.7681-.1985-4.561 .9918-4.1651.9918-4.7599 .6941-3.6692.6941-4.1647 1.9833-15.4689 1.9833-15.4689l-.0989-5.2554c0,0 .3963-8.8254.2974-9.1228s-.5948-6.0488-.5948-6.3462-.1989-5.1566-.1989-5.1566l-.5948-9.6187v-2.1814c0,0 1.4874,4.958 1.8844,5.5532 .3963.5948 1.19-.4959 1.4874-1.2892s1.1896-3.2721 1.2889-4.4621-.2974-2.1814-.6941-2.4788 .1985-1.0907.8922-1.9833 2.2807-4.5614 2.2807-4.5614-.3963-2.2807-.7933-2.5781-.9915-1.0907-.9915-1.884v-2.6774l.7933-.5952-1.4877-3.7681c0,0-.3963-2.3799-.1981-2.6773s-1.19-9.5194-2.4792-10.0153-7.1395-2.4788-7.1395-2.4788-4.0655-1.0907-4.3629-1.0907-1.19-.8926-1.19-.8926l.0993-4.5614 .6941-2.0825c0,0 1.19-.8926 1.0907-1.6859s0-3.2722-.0993-3.6688-2.3799-6.4454-2.7762-6.7428-6.148-2.6774-7.7346-1.884-3.074,1.5866-4.0655,3.5696-1.5866,4.0658-1.5866,5.2554-.0989,3.4707.1985,4.0655c.2974.5952.4956,2.6777 1.19,2.9751s1.3885,1.19 1.3885,1.4874-1.3885,2.2807-1.3885,2.2807-1.2889,2.6774-1.2889,2.38-2.4792.1985-3.6692.3963-2.1814.8926-2.38,1.19-1.1907,1.6862-1.1907,1.6862z"/>
   <path d="m508.65 135.53h1.7542v92.27h-1.7542z"/>
   <path d="m482.38 139.47h58.537v36.014h-58.537z" fill="#fff" stroke="#000" stroke-width="1.2206"/>
  </g>
  <g transform="matrix(.18394 0 0 .18394 118.42 100.36)" stroke="#000">
   <g transform="translate(2.1429 22.857)">
    <path d="m190.74 444.15h122.86c-11.078 11.007-22.993 22.218-38.404 26.791-18.96 5.6259-40.148 4.7179-57.74-4.7326-10.226-5.4934-20.478-12.011-26.713-22.058z"/>
    <g transform="translate(-1.229)" stroke-width="6">
     <path d="m199.29 445.22 57.143-155"/>
     <path d="m307.5 446.47-57.143-155"/>
    </g>
   </g>
   <g transform="translate(4.2857,-30)">
    <path d="m405.45 444.15h122.86c-11.078 11.007-22.993 22.218-38.404 26.791-18.96 5.6259-40.148 4.7179-57.74-4.7326-10.226-5.4934-20.478-12.011-26.713-22.058z"/>
    <g transform="translate(213.49)" stroke-width="6">
     <path d="m199.29 445.22 57.143-155"/>
     <path d="m307.5 446.47-57.143-155"/>
    </g>
   </g>
   <path d="m271.13 548.79h176.79s-60.527-10.812-77.5-33.214c-5.5108-7.2738 0.7383-18.099 0.4286-27.143l-6.5-189.79h-8.9286l-6.5 189.79c-0.3097 9.0424 5.645 19.896 0.0714 27.143-17.202 22.365-77.857 33.214-77.857 33.214h2e-5z"/>
   <path d="m478.07 269.5-232.63 62.81-5.0099-13.075c-0.293-0.7646-0.3825-1.8469 0.1707-2.4506 0.5662-0.618 1.6874-0.1307 2.4834-0.3931 28.676-8.779 50.513-35.299 81.131-38.275 7.3024-0.7099 14.012 0.2199 20.429 3.7324l2.4084 1.3844c3.3592 1.9309 3.3892-2.0712 3.6169-5.7857 0.2493-7.991-7.1335-42.096-6.6508-42.226s11.269 33.056 15.506 39.835c2.0663 3.0951 4.1065 6.5383 6.0374 3.179 0 0 0.9259-1.604 1.3844-2.4084 3.3314-6.6021 9.1797-10.763 15.774-13.507 27.874-11.6 59.83-4.014 89.37-7.7607 0.8199-0.1739 1.5435-1.1593 2.3438-0.9103 0.7819 0.2433 1.2493 1.2235 1.3809 2.0317l2.2515 13.819z"/>
  </g>
  <g font-family="Sans" font-size="15.373" letter-spacing="0" text-anchor="middle" word-spacing="0">
   <path d="m164.3673,184.3877c-1.0859-.045-1.9367-.2978-2.5522-.7581-.6105-.4654-1.0009-1.111-1.171-1.9367l1.2761-.2777c.055.2652.1401.5079.2552.7281s.2702.4028.4654.563 .4329.2903.7131.3903c.2852.0951.623.1551 1.0134.1802v-3.7232l-.1501-.0375c-.3853-.0901-.7632-.1977-1.1335-.3228s-.7006-.2902-.9908-.4954-.5254-.4754-.7056-.7957-.2627-.7256-.2627-1.216c0-.4204.0801-.7857.2402-1.0959s.3828-.568.6681-.7732 .633-.3703 1.0284-.4804 .8307-.1751 1.3061-.1952v-.9833h.9308v.9833c.5004.025.9308.0951 1.2911.2102 .3653.1101.6756.2652.9308.4654s.4654.4454.6305.7356 .2978.6155.3978.9908l-1.3061.2477c-.1001-.4704-.3028-.8357-.608-1.0959-.3053-.2652-.7506-.4254-1.3361-.4804v3.3403c.2952.0701.5855.1426.8707.2177s.5555.1651.8107.2702c.2602.1001.5004.2202.7206.3603s.4103.3103.5705.5104 .2852.4304.3753.7056c.0901.2702.1351.5855.1351.9458-1e-005,.3853-.0701.7431-.2102,1.0734s-.3528.613-.638.8632-.6481.4529-1.0884.608-.9508.2477-1.5463.2777v1.216h-.9308v-1.216m3.1227-2.8074c-1e-005-.3153-.0601-.573-.1802-.7732s-.2752-.3628-.4804-.4879c-.2002-.1301-.4329-.2352-.6981-.3153s-.543-.1576-.8332-.2327v3.513c.3253-.02.623-.0676.8933-.1426s.5004-.1902.6906-.3303c.1952-.1401.3453-.3103.4504-.5104 .1051-.2052.1576-.4454.1576-.7206m-5.0743-4.9092c0,.2702.05.4979.1501.6831s.2377.3403.4128.4654 .3803.2302.6155.3153c.2402.0801.4979.1551.7732.2252v-3.1602c-.3603.02-.6656.0726-.9158.1576s-.4529.1852-.608.3153c-.1501.1301-.2602.2803-.3303.4504s-.0976.3528-.0976.548"/>
  </g>
  <g font-family="Sans" font-size="15.373" letter-spacing="0" text-anchor="middle" word-spacing="0">
   <path d="m205.4071,163.2368c.3953,2e-005 .7656.0376 1.1109.1126s.6531.1927.9233.3528 .4954.3553.6756.6005c.1852.2452.3153.5405.3903.8858l-1.2085.1501c-.04-.2252-.1176-.4103-.2327-.5555s-.2577-.2602-.4279-.3453-.3603-.1426-.5705-.1726c-.2102-.035-.4304-.0525-.6606-.0525-.6255,1e-005-1.1009.1001-1.4262.3003-.3203.1952-.4804.4704-.4804.8257 0,.2252.0626.4179.1877.578s.2902.2978.4954.4128c.2102.1151.4504.2127.7206.2928 .2752.0801.5605.1551.8557.2252 .3403.0801.6831.1777 1.0284.2928s.6656.2652.9458.4504c.2802.1802.5079.4028.6831.6681s.2627.588.2627.9683c-1e-005,.2252-.035.4479-.1051.6681s-.1752.4154-.3153.6005c-.1351.1802-.3053.3403-.5104.4804s-.4429.2352-.7131.3003c.2452.1051.4654.2227.6606.3528s.3678.2677.5029.4279 .2477.3428.3228.548c.0751.2002.1126.4279.1126.6831-1e-005,.3653-.0726.6956-.2177.9908-.1451.2902-.3578.538-.638.7431s-.6255.3703-1.0359.4804-.8832.1651-1.4187.1651c-.4654,0-.8908-.035-1.2761-.1051s-.7256-.1777-1.0209-.3378c-.2903-.1601-.5355-.3703-.7356-.6305s-.3403-.583-.4354-.9683l1.2085-.2327c.0601.2752.1576.4979.2928.6681s.3003.2928.4954.3828c.1952.0951.4179.1576.6681.1877 .2502.035.5179.0525.8032.0525s.563-.0225.8182-.0676c.2552-.045.4779-.1176.6681-.2177s.3403-.2302.4504-.3903c.1151-.1651.1726-.3653.1727-.6005-1e-005-.2702-.0726-.4954-.2177-.6756-.1401-.1802-.3303-.3328-.5705-.4579s-.5079-.2402-.8182-.3303-.6205-.1752-.9458-.2552-.6531-.1701-.9833-.2852-.618-.2627-.8782-.4429c-.2602-.1852-.4729-.4078-.638-.6681-.1601-.2652-.2402-.583-.2402-.9533 0-.2252.04-.4404.1201-.6455s.1927-.4028.3378-.578 .3303-.3353.5405-.4654c.2102-.1351.4479-.2402.7131-.3153-.2102-.0701-.4103-.1626-.6005-.2777s-.3503-.2527-.4954-.4128c-.1401-.1601-.2527-.3403-.3378-.5405-.0801-.2002-.1201-.4204-.1201-.6606 0-.6956.2627-1.236.7882-1.6214s1.3036-.5855 2.3195-.5855m2.0868,6.1627c-1e-005-.2402-.0676-.4454-.2027-.6155-.1301-.1751-.3053-.3253-.5254-.4504s-.4729-.2377-.7581-.3228c-.2803-.0901-.573-.1701-.8782-.2402-.2903.015-.548.0651-.7732.1501-.2202.0801-.4053.1852-.5555.3153s-.2652.2827-.3453.4579c-.0751.1702-.1126.3528-.1126.548 0,.2302.06.4279.1802.593 .1251.1651.2902.3078.4954.4279s.4429.2227.7131.3078 .5555.1651.8557.2402c.2702-.005.5204-.0375.7506-.0976 .2352-.06.4379-.1476.608-.2627s.3028-.2677.3978-.4429c.1001-.1751.1501-.3778.1501-.608"/>
  </g>
  <g transform="translate(-17.294 -.7385)">
   <g transform="matrix(-.49724 0 0 .49724 334.98 116.56)">
    <path d="m361.9606,171.9252c-.1363-21.4749.3595-45.7296 2.2052-58.8672 1.9054-13.5617 2.2988-15.1617 4.146-16.8645 1.3229-1.2194 2.9261-2.2794 8.6445-5.7158 5.2765-3.1708 6.9734-4.5669 9.8425-8.0977 1.8793-2.3127 2.2952-3.2778 2.3076-5.3536 .008-1.4057-.3948-2.4133-1.6234-4.0566-1.056-1.4125-2.3087-3.8769-2.6071-5.1287-.0829-.3479-.2334-.7405-.3344-.8725-.5315-.6946-1.246-4.2208-1.897-9.3619-.4012-3.1687-.9008-6.8414-1.1101-8.1617-.5513-3.4772-.5089-6.5893.1166-8.5632 .8394-2.6489 3.5174-5.7472 6.5431-7.57 2.1795-1.313 3.5797-1.5691 9.2375-1.6895l5.0787-.1081 2.0027.8757c4.7556,2.0793 5.2689,2.3784 6.6914,3.899 3.1225,3.3377 3.7683,4.8959 4.0929,9.8746 .1667,2.5566.3197,3.5353.596,3.8116 .3044.3044.3552.8766.2803,3.1615-.1109,3.3872-.6345,5.3822-2.3248,8.8589l-1.2119,2.4925v2.4928 2.4928l2.5805,2.7173c1.4193,1.4945 3.2842,3.5751 4.1441,4.6235l1.5636,1.9062 6.421,1.9652c10.1567,3.1086 11.4443,3.5562 14.4045,5.0067 2.4046,1.1783 2.9223,1.5387 3.7406,2.6042 .5223.6802 1.123,1.6147 1.3348,2.0768 .5547,1.2104 2.9454,13.6033 3.4962,18.1237 1.3945,11.4464 2.4598,21.7415 2.5461,24.605 .0537,1.7824.2132,4.0259.3544,4.9858 .2702,1.8365.3473,5.7543.1274,6.4735-.0712.2327-.3525,2.1368-.6252,4.2312s-.6688,4.1426-.8802,4.5515c-.8891,1.7193-9.2085,14.0433-10.8857,16.1255l-1.2083,2.4556h-77.7903z"/>
    <g transform="matrix(1.2924 0 0 1.5173 986 -414.42)" stroke-linecap="round" stroke-linejoin="round">
     <path d="m-462.07 328.18 1.8582-3.396 7.2404 7.3045 3.46 0.3204 7.1402-10.374 2.7172 3.0024-3.3859 27.298-12.953-1.7705z" fill="#fff" stroke="#fff"/>
     <path d="m-452.91 332.02 3.5241 0.3204 1.9863 2.563-2.6271 2.8193 7.4927 15.27-13.555-0.7356 2.923-14.407-1.73-2.563z" stroke="#000" stroke-width=".4"/>
     <path d="m-447.46 334.97 3.6523 2.8834 4.3865-6.9215" fill="none" stroke="#000" stroke-width=".5"/>
     <path d="m-454.96 335.42-3.1098 3.3184-2.5237-2.9434" fill="none" stroke="#000" stroke-width=".5"/>
    </g>
   </g>
   <path d="m156.357,115.7141-3.1771.7757-3.2848.6368-3.3521.521-3.4329.3937-3.4733.2779-3.5271.1389-2.1136.0232-2.3963-.0347-2.3694-.081-2.329-.1505-2.2886-.1968-2.2617-.2547-2.2078-.301-2.1809-.3589-2.1271-.4052-2.0597-.44-2.0328-.4979-1.9655-.5558-1.9116-.5905-1.8443-.6252-3.5002-1.3894-1.6424-.741-1.5885-.7989-1.4943-.822-1.4405-.8684-1.3462-.8799-1.252-.9263-1.1847-.9494-1.0904-.9957-.9962-1.0073-.9154-1.0305-.8077-1.0652-.7135-1.0883-.5923-1.0883-.5116-1.1347-.3904-1.1462-.2962-1.1694-.175-1.1694-.0538-1.2041 .0538-1.2041 .175-1.1694 .2962-1.1694 .3904-1.1462 .5116-1.1347 .5923-1.0883 .7135-1.0883 .8077-1.0652 .9154-1.042 .9962-.9957 1.0904-.9957 1.1847-.9494 1.252-.9263 1.3462-.8799 1.4405-.8684 1.4943-.822 1.5885-.7989 1.6424-.7526 3.5002-1.3778 1.8443-.6252 1.9116-.5905 1.9655-.5558 2.0328-.4979 2.0597-.4515 2.1271-.3937 2.1809-.3589 2.2078-.301 2.2617-.2547 2.2886-.1968 2.329-.1505 2.3694-.081 2.3963-.0347 2.3828.0347 2.3694.081 2.329.1505 2.2886.1968 2.2617.2547 2.2078.301 2.1809.3589 2.127.3937 2.0597.4515 2.0328.4979 1.9655.5558 1.9117.5905 1.8443.6252 3.5002,1.3778 1.6424.7526 1.5885.7989 1.4943.822 1.4405.8684 1.3462.8799 1.252.9263 1.1847.9494 1.0904.9957 .9962.9957 .9154,1.042 .8077,1.0652 .7135,1.0883 .5923,1.0883 .5116,1.1347 .3904,1.1462 .2962,1.1694 .175,1.1694 .0538,1.2041-.0538,1.1578-.1481,1.1347-.2558,1.1347-.35,1.0999-.4443,1.0999-.552,1.0536-1.0097,1.5746-1.2385,1.5283-1.4539,1.4704-1.6828,1.4357-1.8847,1.3662-1.3732.9031-3.0694,1.7252-.0673-.0579-19.407,28.1146 7.3717-23.5644 .027.0231z" fill="#fff" fill-rule="evenodd" stroke="#000" stroke-linecap="round" stroke-linejoin="round"/>
  </g>
  <g font-family="Sans" font-size="28.25" letter-spacing="0" text-anchor="middle" word-spacing="0">
   <path d="m88.9946,101.9381c-1.9955-.0828-3.5588-.5472-4.6899-1.3932-1.1219-.8552-1.8392-2.0415-2.1518-3.5588l2.3449-.5104c.1012.4874.2575.9334.469,1.338s.4966.7403.8552,1.0345 .7954.5334 1.3104.7173c.5242.1747 1.1449.2851 1.8622.3311v-6.8417l-.2759-.069c-.7081-.1655-1.4024-.3632-2.0829-.5931s-1.2874-.5333-1.8208-.9104c-.5334-.3862-.9656-.8736-1.2966-1.4621-.3219-.5885-.4828-1.3334-.4828-2.2346-2e-006-.7724.1471-1.4437.4414-2.0139s.7035-1.0437 1.2276-1.4208c.5334-.3862 1.1633-.6805 1.8898-.8828s1.5265-.3218 2.4001-.3586v-1.807h1.7104v1.807c.9196.046 1.7104.1747 2.3725.3862 .6713.2023 1.2414.4874 1.7104.8552s.8552.8185 1.1587,1.3518c.3034.5242.5471,1.1311.7311,1.8208l-2.4001.4552c-.1839-.8644-.5564-1.5357-1.1173-2.0139-.561-.4874-1.3794-.7816-2.4553-.8828v6.1383c.5425.1288 1.0759.2621 1.6001.4s1.0207.3035 1.4897.4966c.4782.1839.9196.4046 1.3242.6621s.754.5702 1.0483.938c.2943.3586.5242.7909.6897,1.2966 .1655.4966.2483,1.0759.2483,1.738-1.6e-005,.7081-.1288,1.3656-.3862,1.9725-.2575.5977-.6483,1.1265-1.1725,1.5863s-1.1909.8322-2.0001,1.1173c-.8001.2851-1.7472.4552-2.8415.5104v2.2346h-1.7104v-2.2346m5.7382-5.1589c-1.2e-005-.5793-.1104-1.0529-.3311-1.4208-.2115-.3678-.5058-.6667-.8828-.8966-.3678-.2391-.7955-.4322-1.2828-.5793s-.9978-.2897-1.5311-.4276v6.4555c.5977-.0368 1.1449-.1241 1.6415-.2621 .4966-.1471.9196-.3494 1.269-.6069 .3586-.2575.6345-.5701.8276-.938 .1931-.377.2897-.8184.2897-1.3242m-9.3246-9.0212c-4e-006,.4966.092.915.2759,1.2552s.4368.6253.7587.8552 .6989.423 1.1311.5793c.4414.1471.915.2851 1.4208.4138v-5.8072c-.6621.0368-1.2231.1334-1.6828.2897-.4598.1472-.8322.3403-1.1173.5793-.2759.2391-.4782.515-.6069.8276-.1196.3127-.1793.6483-.1793,1.0069"/>
  </g>
  <g font-family="Sans" font-size="28.25" letter-spacing="0" text-anchor="middle" word-spacing="0">
   <path d="m139.4426,81.4162c.7265,2e-005 1.407.069 2.0415.2069s1.2001.3541 1.6966.6483 .9104.6529 1.2414,1.1035c.3402.4506.5793.9932.7173,1.6277l-2.2208.2759c-.0736-.4138-.2161-.754-.4276-1.0207s-.4736-.4782-.7863-.6345-.6621-.2621-1.0483-.3173-.7909-.0965-1.2139-.0966c-1.1495,1.9e-005-2.0231.1839-2.6208.5518-.5885.3587-.8828.8644-.8828,1.5173 0,.4138.115.7679.3448,1.0621s.5334.5472.9104.7587c.3862.2115.8276.3908 1.3242.538 .5058.1471 1.0299.2851 1.5725.4138 .6253.1471 1.2552.3265 1.8898.538 .6437.2115 1.223.4874 1.738.8276 .515.3311.9334.7403 1.2552,1.2277s.4828,1.0805.4828,1.7794c-1e-005,.4138-.0644.823-.1931,1.2276s-.3219.7633-.5793,1.1035c-.2483.3311-.561.6253-.938.8828-.3771.2483-.8138.4322-1.3104.5518 .4506.1931.8552.4092 1.2139.6483 .3678.2299.6759.492.9242.7862 .2575.2943.4552.6299.5931,1.0069 .1379.3678.2069.7863.2069,1.2552-2e-005,.6713-.1334,1.2782-.4,1.8208-.2667.5334-.6575.9886-1.1725,1.3656-.515.3862-1.1495.6805-1.9036.8828s-1.6231.3035-2.607.3035c-.8552,0-1.6369-.0644-2.3449-.1931-.7081-.1196-1.3334-.3265-1.876-.6207-.5334-.2943-.984-.6805-1.3518-1.1587-.3586-.4782-.6253-1.0713-.8-1.7794l2.2208-.4276c.1104.5058.2897.915.538,1.2276 .2483.3035.5517.538.9104.7035s.7679.2897 1.2276.3448 .9518.0965 1.4759.0965c.5334,0 1.0345-.0414 1.5035-.1241s.8782-.2161 1.2276-.4 .6253-.423.8276-.7173c.2115-.3035.3172-.6713.3173-1.1035-2e-005-.4966-.1334-.9104-.4-1.2414-.2575-.331-.6069-.6115-1.0483-.8414-.4322-.2391-.9334-.4414-1.5035-.6069-.561-.1655-1.1403-.3219-1.738-.469-.5977-.1379-1.2001-.3127-1.807-.5242-.5977-.2115-1.1357-.4828-1.6139-.8138-.4782-.3402-.869-.7495-1.1725-1.2276-.2943-.4874-.4414-1.0713-.4414-1.7518 0-.4138.0736-.8092.2207-1.1863 .1471-.3862.354-.7403.6207-1.0621 .2759-.331.6069-.6161.9931-.8552 .3862-.2483.823-.4414 1.3104-.5793-.3862-.1287-.7541-.2989-1.1035-.5104-.3403-.2115-.6437-.4644-.9104-.7587-.2575-.2943-.4644-.6253-.6207-.9932-.1471-.3678-.2207-.7724-.2207-1.2139 0-1.2782.4828-2.2714 1.4484-2.9795 .9748-.7173 2.3955-1.0759 4.2623-1.0759m3.8347,11.3247c-2e-005-.4414-.1242-.8184-.3724-1.1311-.2391-.3218-.561-.5977-.9656-.8276-.4046-.2391-.869-.4368-1.3932-.5931-.515-.1655-1.0529-.3126-1.6139-.4414-.5334.0276-1.007.1196-1.4208.2759-.4046.1471-.7449.3403-1.0207.5793s-.4874.5196-.6345.8414c-.1379.3127-.2069.6483-.2069,1.0069 0,.423.1104.7863.3311,1.0897 .2299.3035.5333.5656.9104.7862s.8138.4092 1.3104.5655 1.0207.3035 1.5725.4414c.4966-.0092.9564-.069 1.3794-.1793 .4322-.1103.8046-.2713 1.1173-.4828 .3126-.2207.5563-.492.7311-.8138 .1839-.3218.2759-.6943.2759-1.1173"/>
  </g>
  <path d="m124.57 76.939 1.9662 6.554-6.8817 0.9831 2.0132-2.3312c-7.4337-2.8559-11.389 0.0843-13.565 2.2173l-4.1757-5.0017c4.2982-3.554 12.521-4.49 18.889 0.5395z" fill="none" stroke="#000" stroke-linecap="round" stroke-linejoin="round"/>
  <path d="m105.63 109.08-1.9662-6.554 6.8817-0.9831-2.0132 2.3312c7.4337 2.8559 11.389-0.0843 13.565-2.2173l4.1757 5.0017c-4.2982 3.5541-12.521 4.49-18.889-0.5395z" fill="none" stroke="#000" stroke-linecap="round" stroke-linejoin="round"/>
  <g transform="translate(-17.294 -.7385)">
   <g transform="translate(-39.645 11.122)">
    <path d="m287.8989,190.9232c-.0678-10.6782.1787-22.7385 1.0965-29.271 .9474-6.7434 1.143-7.539 2.0616-8.3857 .6578-.6063 1.455-1.1334 4.2984-2.8421 2.6237-1.5766 3.4675-2.2708 4.8941-4.0265 .9345-1.15 1.1413-1.6298 1.1475-2.662 .004-.699-.1963-1.2-.8072-2.0171-.5251-.7023-1.148-1.9277-1.2963-2.5502-.0412-.173-.1161-.3682-.1663-.4339-.2643-.3454-.6195-2.0987-.9432-4.6551-.1995-1.5756-.4479-3.4018-.552-4.0583-.2741-1.729-.2531-3.2765.058-4.2579 .4174-1.3171 1.749-2.8577 3.2535-3.7641 1.0838-.6529 1.78-.7802 4.5932-.8401l2.5253-.0537 .9958.4354c2.3647,1.0339 2.6199,1.1827 3.3272,1.9387 1.5526,1.6596 1.8738,2.4344 2.0351,4.91 .0829,1.2712.159,1.7579.2963,1.8953 .1514.1514.1766.4359.1394,1.572-.0551,1.6842-.3155,2.6762-1.156,4.405l-.6026,1.2394v1.2395 1.2395l1.2831,1.3511c.7057.7431 1.633,1.7777 2.0606,2.299l.7775.9478 3.1928.9772c5.0503,1.5457 5.6906,1.7683 7.1625,2.4895 1.1957.5859 1.4531.7651 1.86,1.2949 .2597.3382.5584.8029.6637,1.0327 .2758.6019 1.4646,6.7641 1.7384,9.0118 .6934,5.6916 1.2231,10.8107 1.266,12.2346 .0267.8863.106,2.0019.1762,2.4791 .1344.9132.1727,2.8613.0633,3.2189-.0354.1157-.1753,1.0625-.3109,2.1039s-.3326,2.0599-.4377,2.2632c-.4421.8549-4.5788,6.9829-5.4128,8.0182l-.6008,1.2211h-38.6803z"/>
    <g transform="matrix(.64263 0 0 .75445 598.19 -100.63)" stroke-linecap="round" stroke-linejoin="round">
     <path d="m-462.07 328.18 1.8582-3.396 7.2404 7.3045 3.46 0.3204 7.1402-10.374 2.7172 3.0024-3.3859 27.298-12.953-1.7705z" fill="#fff" stroke="#fff"/>
     <path d="m-452.91 332.02 3.5241 0.3204 1.9863 2.563-2.6271 2.8193 7.4927 15.27-13.555-0.7356 2.923-14.407-1.73-2.563z" stroke="#000" stroke-width=".4"/>
     <path d="m-447.46 334.97 3.6523 2.8834 4.3865-6.9215" fill="none" stroke="#000" stroke-width=".5"/>
     <path d="m-454.96 335.42-3.1098 3.3184-2.5237-2.9434" fill="none" stroke="#000" stroke-width=".5"/>
    </g>
   </g>
   <path d="m246.896,115.7141 3.1771.7757 3.2848.6368 3.3521.521 3.4329.3937 3.4733.2779 3.5271.1389 2.1136.0232 2.3963-.0347 2.3694-.081 2.329-.1505 2.2886-.1968 2.2617-.2547 2.2078-.301 2.1809-.3589 2.1271-.4052 2.0597-.44 2.0328-.4979 1.9655-.5558 1.9116-.5905 1.8443-.6252 3.5002-1.3894 1.6424-.741 1.5885-.7989 1.4943-.822 1.4405-.8684 1.3462-.8799 1.252-.9263 1.1847-.9494 1.0904-.9957 .9962-1.0073 .9154-1.0305 .8077-1.0652 .7135-1.0883 .5923-1.0883 .5116-1.1347 .3904-1.1462 .2962-1.1694 .175-1.1694 .0538-1.2041-.0538-1.2041-.175-1.1694-.2962-1.1694-.3904-1.1462-.5116-1.1347-.5923-1.0883-.7135-1.0883-.8077-1.0652-.9154-1.042-.9962-.9957-1.0904-.9957-1.1847-.9494-1.252-.9263-1.3462-.8799-1.4405-.8684-1.4943-.822-1.5885-.7989-1.6424-.7526-3.5002-1.3778-1.8443-.6252-1.9116-.5905-1.9655-.5558-2.0328-.4979-2.0597-.4515-2.1271-.3937-2.1809-.3589-2.2078-.301-2.2617-.2547-2.2886-.1968-2.329-.1505-2.3694-.081-2.3963-.0347-2.3828.0347-2.3694.081-2.329.1505-2.2886.1968-2.2617.2547-2.2078.301-2.1809.3589-2.127.3937-2.0597.4515-2.0328.4979-1.9655.5558-1.9117.5905-1.8443.6252-3.5002,1.3778-1.6424.7526-1.5885.7989-1.4943.822-1.4405.8684-1.3462.8799-1.252.9263-1.1847.9494-1.0904.9957-.9962.9957-.9154,1.042-.8077,1.0652-.7135,1.0883-.5923,1.0883-.5116,1.1347-.3904,1.1462-.2962,1.1694-.175,1.1694-.0538,1.2041 .0538,1.1578 .1481,1.1347 .2558,1.1347 .35,1.0999 .4443,1.0999 .552,1.0536 1.0097,1.5746 1.2385,1.5283 1.4539,1.4704 1.6828,1.4357 1.8847,1.3662 1.3732.9031 3.0694,1.7252 .0673-.0579 19.407,28.1146-7.3717-23.5644-.027.0231z" fill="#fff" fill-rule="evenodd" stroke="#000" stroke-linecap="round" stroke-linejoin="round"/>
  </g>
  <g transform="matrix(1.1625 0 0 1.1625 -93.115 -228.18)" stroke="#000" stroke-linecap="round" stroke-linejoin="round">
   <path d="m302.97 272.57 11.355-0.6686 1.2245 14.338-11.837 0.7429z" stroke-width=".267"/>
   <path transform="matrix(.41127 -.04435 .0363 .60697 160.08 125.53)" d="m326.78 277.78c0 6.5697-1.3645 11.896-3.0476 11.896s-3.0476-5.3258-3.0476-11.896 1.3645-11.896 3.0476-11.896 3.0476 5.3258 3.0476 11.896z" fill="#fff" stroke-width=".5"/>
   <path d="m299.4368,273.6391-3.7875-.9063c-1.6319-.6386-4.1317-2.597-4.6195-9.2104-.5012-1.6116-2.5518-2.4862-3.1687-.3738l-.1206,5.3055 .3617,4.3409c-1.9927,1.1906-7.0918-.1535-7.1389,3.8338l1.954,11.2386c.5386,1.2486 1.1615,1.1332 2.8939,1.6881 2.9047.1061 4.0193-.4823 6.029-.7235 2.8069-.737 4.4396-3.507 7.2348-3.9791l4.5593-.3912-.5466-9.4214c-1.3054.2276-1.6194-.676-3.651-1.4013z" fill="#fff" stroke-width=".6"/>
   <path transform="matrix(.9978,-.0663,.0663,.9978,0,0)" d="m261.84 294.36h6.0677a1.5956 1.5956 0 0 1 1.5956 1.5956 1.5956 1.5956 0 0 1 -1.5956 1.5956h-6.0677a1.5956 1.5956 0 0 1 -1.5956 -1.5956 1.5956 1.5956 0 0 1 1.5956 -1.5956" fill="#fff" stroke-width=".5"/>
   <path transform="matrix(.9978,-.0663,.0663,.9978,0,0)" d="m261.23 297.62h7.1557a1.5956 1.5956 0 0 1 1.5956 1.5956 1.5956 1.5956 0 0 1 -1.5956 1.5956h-7.1557a1.5956 1.5956 0 0 1 -1.5956 -1.5956 1.5956 1.5956 0 0 1 1.5956 -1.5956" fill="#fff" stroke-width=".5"/>
   <path transform="matrix(.9978,-.0663,.0663,.9978,0,0)" d="m262.24 300.89h6.0926a1.5956 1.5956 0 0 1 1.5956 1.5956 1.5956 1.5956 0 0 1 -1.5956 1.5956h-6.0926a1.5956 1.5956 0 0 1 -1.5956 -1.5956 1.5956 1.5956 0 0 1 1.5956 -1.5956" fill="#fff" stroke-width=".5"/>
   <path transform="matrix(.9978,-.0663,.0663,.9978,0,0)" d="m263.19 304.28h5.2292a1.5956 1.5956 0 0 1 1.5956 1.5956 1.5956 1.5956 0 0 1 -1.5956 1.5956h-5.2292a1.5956 1.5956 0 0 1 -1.5956 -1.5956 1.5956 1.5956 0 0 1 1.5956 -1.5956" fill="#fff" stroke-width=".5"/>
  </g>
  <g transform="translate(-17.294 -.7385)" stroke-linecap="round" stroke-linejoin="round">
   <path d="m88.659 203.69h229.13a5.3118 5.3118 0 0 1 5.3118 5.3118 5.3118 5.3118 0 0 1 -5.3118 5.3118h-229.13a5.3118 5.3118 0 0 1 -5.3118 -5.3118 5.3118 5.3118 0 0 1 5.3118 -5.3118" stroke="#fff" stroke-width=".431"/>
   <path d="m294.61 215.9h6.9284v69.753h-6.9284z" stroke="#000" stroke-width=".6165"/>
   <path d="m105.47 215.9h6.9284v69.753h-6.9284z" stroke="#000" stroke-width=".6165"/>
  </g>
  <path d="m230.5929,245.9388c1.0012,1.5733 4.1478,1.2873 5.5781,1.0012s1.5381,1.7515 4.2556,1.4655 4.4099-1.2701 5.0048-3.8254c.881-1.125 5.9919-2.9353 5.6584-7.7281 2.384.2132 4.2463.1735 6.0501.4378l.143-1.5733c-1.8279-.1155-4.1632-.115-7.3099-.0175 0,3.2181-1.4455,5.46-4.1753,6.9953 .3031-6.3233-3.3973-4.8368-3.6824-5.3008-1.6889-2.7489-3.1279-.8582-3.7715-2.2169-1.0042-2.12-10.3255,5.0412-7.751,10.7623z"/>
  <path d="m231.451,244.294c.143,1.7163 2.2885,2.5745 4.8629,1.3588 4.0332-1.9046 4.2908-3.1466 4.5769-3.9333s.9297-2.36.5721-3.1466-.5006-1.5018-2.0739-1.7878-8.0811,5.7926-7.938,7.5089z" fill="#fff"/>
  <path d="m242.4642,238.7159c-.0715,1.3588-.3956,3.5969-.8582,4.2908-.5721.8582-1.7878,2.0739-3.7187,3.1466 1.3588,2.0024 4.9344,1.0727 6.0072-.6436s1.1442-7.2944-1.4303-6.7938z" fill="#fff"/>
  <path d="m216.6 236c9.0814 4.4276 18.934 6.2899 29.099 7.1136-4.9966 9.6584-10.34 18.665-16.56 27.701-11.129 0.3783-25.036-1.9538-34.755-4.3441 6.7076-10.512 14.279-20.584 22.216-30.47z" fill="#fff" stroke="#000" stroke-width="1.2356"/>
  <path d="m215.56 231.52c8.7683 5.0192 18.476 7.5298 28.564 9.0248-5.6252 9.3064-11.553 17.939-18.357 26.544-11.13-0.3595-24.852-3.6073-34.391-6.6359 7.3889-10.044 15.611-19.593 24.184-28.932z" fill="#fff" stroke="#000" stroke-width="1.2356"/>
  <path d="m228.95 228.99c-2.789 5.0775-5.7211 7.652-7.8665 8.8677s-1.2873 4.0048 1.8594 3.6472 8.7247-4.6484 10.226-6.2932 5.2205 1.2157 10.584-1.2873-5.0775-10.87-9.0823-8.6532-4.1478 1.2157-5.7211 3.7187z" fill="#fff"/>
  <path d="m230.7749,228.1084c-1.8331,1.534-4.0625,6.9843-7.0395,8.5677-2.6423,1.4054-4.247,3.3392-1.7299,3.9562 3.0849.7562 7.9152-2.5658 10.0548-5.192 1.7439-2.1406 7.3005.2071 13.2751-2.2723-5.3425,3.8097-10.7124,1.5487-11.9986,3.1073-3.3373,4.0442-8.6695,6.7744-12.3219,5.6042-1.9349-.62-2.6215-3.3218-.2671-4.686 5.8343-3.3806 6.214-7.2893 8.9585-9.7046 2.8721-2.5277 7.382-4.0951 8.4706-4.2208 1.484-.1714 8.5157-.6845 11.4648-.6148s5.6672.3414 7.5903.6418l-.0787,1.5986c-2.4047-.5911-5.0077-.5104-7.759-.6594s-9.4047.2822-11.1126.5815c-1.104.1935-5.6738,1.7587-7.5069,3.2927z"/>
  <path d="m231.022,227.0592c-4.8053.9372-8.8332,5.735-10.1074,7.1078l1.2017.2682c1.429-.9098 4.4981-5.0267 7.0456-5.3106l1.8602-2.0654z"/>
  <path d="m265.9639,218.0586c-4.0542.1956-7.4374,1.0634-7.4374,1.0634l-.3563,1.3922c0,0-4.3465.2223-4.5103.8988-1.1655,4.8143.705,17.8137.705,17.8137l4.7801.2644 1.3182,3.9302 5.6915.7777-.1907-26.1405z"/>
  <path d="m257.9285,221.9694c0,0 .004,8.8109.8435,15.5573-.9496.1911-3.2032-.1031-3.2032-.1031s-1.4384-10.8881-.6264-15.1949c.6561-.3288 1.4794-.3216 2.9862-.2594z" fill="#fff"/>
  <g transform="matrix(.98735,.15854,-.72739,.89601,0,0)" font-family="Sans" font-size="15.976" letter-spacing="0" text-anchor="middle" word-spacing="0">
   <path d="m376.8685,207.7125c.4108,2e-005 .7957.039 1.1545.117s.6787.2002.9595.3666c.2808.1612.5149.3693.7021.6241s.3276.5617.4057.9205l-1.256.156c-.0416-.234-.1222-.4265-.2418-.5773s-.2678-.2704-.4446-.3589-.3745-.1482-.5929-.1794c-.2184-.0364-.4473-.0546-.6865-.0546-.6501,1e-005-1.1442.104-1.4822.312-.3328.2028-.4993.4889-.4993.8581-1e-005,.234.065.4343.195.6007s.3016.3095.5149.4291c.2184.1196.4681.221.7489.3042 .286.0832.5825.1612.8893.234 .3536.0832.7099.1846 1.0687.3042s.6917.2757.9829.4681 .5279.4187.7099.6943 .273.6111.273,1.0063c0,.234-.0364.4655-.1092.6943-.0728.2236-.182.4317-.3276.6241-.1404.1872-.3172.3537-.5305.4993-.2132.1404-.4603.2444-.7411.312 .2548.1092.4837.2314.6865.3666 .208.13.3822.2782.5227.4447 .1456.1664.2574.3562.3354.5695s.117.4446.117.7099c-1e-005,.3796-.0754.7229-.2262,1.0297-.1508.3016-.3719.5591-.6631.7723-.2913.2184-.6501.3849-1.0765.4993s-.9179.1716-1.4744.1716c-.4837,0-.9257-.0364-1.3262-.1092s-.7541-.1846-1.0609-.351c-.3016-.1664-.5565-.3849-.7645-.6553-.2028-.2704-.3537-.6059-.4525-1.0063l1.256-.2418c.0624.286.1638.5175.3042.6943 .1404.1716.312.3042.5149.3978 .2028.0988.4343.1638.6943.195 .26.0364.5383.0546.8347.0546s.5851-.0234.8503-.0702 .4967-.1222.6943-.2262 .3536-.2392.4681-.4057c.1196-.1716.1794-.3796.1794-.6241-1e-005-.2808-.0754-.5149-.2262-.7021s-.3433-.3458-.5929-.4759c-.2444-.1352-.5279-.2496-.8503-.3432s-.6449-.182-.9829-.2652-.6787-.1768-1.0219-.2964-.6423-.273-.9127-.4603-.4915-.4239-.6631-.6943c-.1664-.2756-.2496-.6059-.2496-.9907 0-.234.0416-.4577.1248-.6709 .0832-.2184.2002-.4187.351-.6007 .156-.1872.3432-.3484.5617-.4837s.4655-.2496.7411-.3276c-.2184-.0728-.4265-.169-.6241-.2886-.1924-.1196-.364-.2626-.5149-.429s-.2626-.3536-.351-.5617c-.0832-.208-.1248-.4369-.1248-.6865 0-.7229.273-1.2846.8191-1.685 .5513-.4056 1.3548-.6085 2.4105-.6085m2.1687,6.4046c-1e-005-.2496-.0702-.4628-.2106-.6397s-.3172-.338-.5461-.4681c-.2288-.1352-.4915-.247-.7879-.3354-.2912-.0936-.5955-.1768-.9127-.2496-.3016.0156-.5695.0676-.8035.156-.2288.0832-.4213.1924-.5773.3276s-.2756.2938-.3589.4759-.117.3666-.117.5695c-1e-005,.2392.0624.4447.1872.6163 .13.1716.3016.3198.5149.4446s.4602.2314.7411.3198 .5773.1716.8893.2496c.2808-.005.5409-.039.7801-.1014s.4551-.1534.6319-.273 .3146-.2782.4134-.4603 .156-.3927.156-.6319"/>
  </g>
  <path d="m200.8 230.15 2.4294 8.0978-8.5028 1.2147 2.4874-2.8804c-9.1849-3.5287-14.072 0.1042-16.76 2.7396l-5.1594-6.18c5.3107-4.3913 15.47-5.5477 23.338 0.6666z" fill="none" stroke="#000" stroke-linecap="round" stroke-linejoin="round" stroke-width="1.2356"/>
  <path d="m164.79 282.08-2.4293-8.0978 8.5028-1.2147-2.4874 2.8804c9.1849 3.5287 14.072-0.1042 16.76-2.7396l5.1594 6.18c-5.3107 4.3913-15.47 5.5477-23.338-0.6666z" fill="none" stroke="#000" stroke-linecap="round" stroke-linejoin="round" stroke-width="1.2356"/>
  <path d="m141.0274,257.0789c-1.0012,1.5733-4.1478,1.2873-5.5781,1.0012s-1.5381,1.7515-4.2556,1.4655-4.4099-1.2701-5.0048-3.8254c-.881-1.125-5.9919-2.9353-5.6584-7.7281-2.384.2132-4.2463.1736-6.0501.4378l-.143-1.5733c1.8279-.1155 4.1632-.115 7.3099-.0175 0,3.2181 1.4455,5.46 4.1753,6.9953-.3031-6.3233 3.3973-4.8368 3.6824-5.3008 1.6889-2.7489 3.1279-.8582 3.7715-2.2169 1.0042-2.12 10.3255,5.0412 7.751,10.7623z"/>
  <path d="m140.1692,255.434c-.143,1.7163-2.2885,2.5745-4.8629,1.3588-4.0332-1.9046-4.2908-3.1466-4.5769-3.9333s-.9297-2.36-.5721-3.1466 .5006-1.5018 2.0739-1.7878 8.0811,5.7926 7.938,7.5089z" fill="#fff"/>
  <path d="m129.1561,249.856c.0715,1.3588.3956,3.5969.8582,4.2908 .5721.8582 1.7878,2.0739 3.7187,3.1466-1.3588,2.0024-4.9345,1.0727-6.0072-.6436s-1.1442-7.2944 1.4303-6.7938z" fill="#fff"/>
  <g transform="matrix(1.2356 0 0 1.2356 -153.28 -191.78)">
   <path d="m239.22 355.46s-4.5089 7.3052-5.6269 9.7976c8.159-0.6687 23.378 2.0693 32.58 3.08 2.4735-5.6257 4.5224-11.045 3.9232-13.576-3.4899-1.2533-30.876 0.6987-30.876 0.6987z"/>
   <path d="m240.11 356.22s-3.922 5.8679-4.9138 8.079c7.2378-0.5932 21.994 1.6585 30.157 2.5551 2.1438-3.871 3.8943-9.5187 3.6366-11.235-3.0959-1.1118-28.88 0.6011-28.88 0.6011z" fill="#fff"/>
   <path d="m237.98 351.3s-6.4165 5.703-8.2031 7.7695c8.0075 1.7021 19.33 7.7302 27.854 11.34 6.1475-2.7555 9.9727-8.3168 10.126-10.914-2.9831-2.2025-29.776-8.1957-29.776-8.1957z"/>
   <path d="m238.61 352.27s-5.4417 4.4947-7.0266 6.3279c7.1034 1.5099 18.506 7.1545 26.067 10.357 4.5623-2.0625 8.5497-7.2505 8.7956-8.9687-2.6463-1.9539-27.836-7.7161-27.836-7.7161z" fill="#fff"/>
   <path d="m238.58 352.74s-3.9678 3.5869-6.7999 9.0232c8.1789 0.3495 21.546 4.9198 30.551 7.065 4.5016-4.6712 7.2532-10.362 6.9729-12.948-3.3073-1.6769-30.724-3.1402-30.724-3.1402z"/>
   <path d="m239.37 353.6s-3.2918 2.4457-5.8789 7.4063c7.2555 0.31 20.578 4.2683 28.566 6.1713 3.4014-3.4871 6.0863-8.8533 6.0436-10.588-2.9339-1.4876-28.731-2.9892-28.731-2.9892z" fill="#fff"/>
  </g>
  <path d="m142.67 240.13c2.789 5.0775 5.7211 7.652 7.8665 8.8677s1.2873 4.0048-1.8594 3.6472-8.7247-4.6484-10.226-6.2932-5.2205 1.2158-10.584-1.2872 5.0775-10.87 9.0823-8.6532 4.1478 1.2157 5.7211 3.7187z" fill="#fff"/>
  <path d="m140.8454,239.2484c1.8331,1.534 4.0625,6.9843 7.0395,8.5676 2.6423,1.4054 4.247,3.3392 1.7299,3.9562-3.0849.7562-7.9152-2.5658-10.0548-5.192-1.7439-2.1406-7.3005.2071-13.2751-2.2723 5.3425,3.8097 10.7124,1.5487 11.9986,3.1073 3.3373,4.0442 8.6695,6.7744 12.3219,5.6042 1.9349-.62 2.6215-3.3218.2671-4.686-5.8343-3.3806-6.214-7.2893-8.9585-9.7046-2.8721-2.5277-7.382-4.0951-8.4706-4.2208-1.484-.1714-8.5157-.6845-11.4648-.6148s-5.6672.3414-7.5903.6418l.0787,1.5986c2.4047-.5911 5.0077-.5104 7.759-.6594s9.4047.2822 11.1126.5815c1.104.1935 5.6738,1.7587 7.5069,3.2927z"/>
  <path d="m140.6 238.2c4.8053 0.9372 8.8332 5.735 10.107 7.1078l-1.2016 0.2682c-1.429-0.9098-4.4981-5.0267-7.0456-5.3106l-1.8602-2.0654z"/>
  <path d="m105.6564,229.1986c4.0542.1956 7.4374,1.0634 7.4374,1.0634l.3563,1.3922c0,0 4.3465.2223 4.5103.8988 1.1654,4.8143-.705,17.8137-.705,17.8137l-4.7801.2644-1.3182,3.9302-5.6915.7777 .1907-26.1405z"/>
  <path d="m113.6918,233.1094c0,0-.004,8.8109-.8435,15.5573 .9496.1911 3.2032-.1031 3.2032-.1031s1.4384-10.8881.6264-15.1949c-.6561-.3288-1.4794-.3216-2.9862-.2594z" fill="#fff"/>
  <g transform="matrix(.93912,.16514,-.9246,.90224,0,0)" font-family="Sans" font-size="10.553" letter-spacing="0" text-anchor="middle" word-spacing="0">
   <path d="m388.8225,211.6818c-1e-005,.292-.0481.5583-.1443.7987s-.2456.4432-.4483.6184c-.1993.1718-.4552.3092-.7678.4123s-.6854.158-1.1182.1752v.9018h-.5617v-.8863c-.3916-.0137-.7335-.067-1.0255-.1597s-.5359-.2233-.742-.3916c-.2027-.1683-.3676-.3727-.4947-.6132-.1237-.2439-.2164-.5222-.2783-.8348l1.3192-.2422c.0275.1649.067.3161.1185.4535 .055.134.1288.2508.2216.3504s.2095.1821.3504.2473c.1443.0618.3212.1031.5308.1237v-2.0149c-.0103-.007-.0361-.0137-.0773-.0206s-.0687-.0155-.0824-.0155c-.268-.0618-.5308-.1374-.7884-.2267s-.4878-.2164-.6905-.371c-.1993-.158-.3607-.3555-.4844-.5926s-.1855-.5394-.1855-.8966c0-.3126.0567-.5806.1701-.8039 .1134-.2267.2714-.4139.4741-.5617 .2061-.1477.45-.2594.7317-.335 .2851-.0756.596-.1202.9327-.134v-.6905h.5617v.6905c.3676.0138.6802.0618.9378.1443s.4758.1993.6544.3504 .3229.3315.4329.5514 .201.4689.2731.7575l-1.3604.201c-.0515-.2989-.1529-.529-.304-.6905s-.359-.2662-.6338-.304v1.8139c.0172.007.0344.0103.0515.0103s.0412.003.0618.0103c.2954.0687.584.1494.8657.2422 .2851.0928.5376.2182.7575.3762s.4019.3624.5359.6132c.1374.2473.2061.5617.2061.943m-3.0403-4.0297c-.1821.0137-.335.0447-.4586.0927s-.2182.1099-.2937.1855c-.0756.0721-.1288.1563-.1598.2525-.0309.0928-.0464.1907-.0464.2937 0,.1477.0241.2697.0722.3659 .0481.0928.1151.1701.201.2319s.1872.1151.304.1598l.3813.1288v-1.7108m1.7005,4.0503c0-.1683-.0292-.304-.0876-.4071-.0584-.1065-.1391-.1924-.2422-.2576s-.225-.1185-.3659-.1598l-.4432-.134v1.8912c.3641-.0241.6441-.1099.8399-.2577s.2989-.3727.2989-.6751"/>
  </g>
  <path transform="matrix(3.0268 -.34551 -.8824 1.3626 -56.423 -49.871)" d="m146.99 258.39c0 1.5229-0.5597 2.7575-1.2501 2.7575s-1.2501-1.2346-1.2501-2.7575 0.5597-2.7575 1.2501-2.7575 1.2501 1.2346 1.2501 2.7575z" fill="none" stroke="#000" stroke-linecap="round" stroke-linejoin="round" stroke-width=".5"/>
 </g>
</svg>
