<?xml version='1.0' encoding='utf-8'?>
<svg xmlns="http://www.w3.org/2000/svg" version="1.1" viewBox="0 0 1080 2132"> <g fill="#fff"> <path d="m82.999 599.5c-0.13227 0-0.25912 0.05256-0.35265 0.14606-0.09353 0.09351-0.14608 0.2204-0.14608 0.35264l9.99e-4 901c0 0.2754 0.22329 0.4988 0.49873 0.4988l901 1e-3c0.13224 0 0.25913-0.0527 0.35264-0.1462 0.0935-0.0935 0.14606-0.2203 0.14606-0.3526l-1e-3 -901c0-0.27545-0.22325-0.4987-0.4987-0.4987l-901-1e-3z"/> </g> <g> <g fill="#3088c6"> <path d="m622.08 835.32q-11.177-0.91077-21.227 1.2547-10.031 1.9379-18.005 6.7988-7.7454 4.8798-12.748 12.738-4.7752 7.8775-5.6673 18.826l34.877 11.568q0.4834-5.9302 5.3985-9.8927 4.9153-3.9618 11.758-3.4042 5.9305 0.4834 10.195 4.5046 4.0549 3.7752 3.5716 9.7058-0.3345 4.1055-4.0909 7.9325-3.5281 3.8458-13.363 9.0141-4.7849 2.3653-8.9603 5.699-3.9281 3.1236-7.3025 7.9004-3.1278 4.567-5.2448 10.824-2.1173 6.2568-2.8053 14.697l-0.55764 6.843 31.478 2.5658q0.20459-2.5093 0.61859-4.772 0.80956-4.2966 2.3827-6.6942 4.3797-5.8428 9.2762-9.5764 4.8966-3.7345 9.7375-6.784 4.8222-2.8218 9.4165-5.6622 4.5754-2.6118 8.3501-6.6668 3.5467-4.0737 6.1015-10.065 2.5362-5.7636 3.2982-15.116 0.8924-10.949-2.2601-20.161-2.9433-8.9648-9.2655-15.91-6.1129-6.6977-14.94-11.091-8.845-4.1648-19.794-5.0573z"/> <path d="m587.96 956.51-2.5654 31.479 31.25 2.5468 2.5656-31.479z"/> </g> <g fill-opacity=".42745"> <path d="m931.91 1280.5-3.461 0.6136q-10.937 0.8244-40.597 1.5018l-16 0.3299q-17.171 0.3203-39.022 0.6045-21.851 0.2834-48.384 0.5305-26.716 0.2467-55.539 0.4283-13.095 0.1316-91.216 0.3981-63.973 0.1683-136.38 0.0752-19.198 0.0021-96.737-0.3215-29.94-0.1493-56.804-0.3537-53.73-0.4099-95.161-1.0427-82.795-1.2743-78.085-2.9519 3.626-0.8672 29.482-1.5791 35.32-0.861 48.001-0.9888 19.511-0.3022 43.703-0.5682 10.273-0.1697 80.902-0.6848 28.824-0.1815 59.756-0.298 61.865-0.233 132.16-0.2053 72.712 0.0438 132.41 0.3523 29.939 0.1489 56.804 0.3534 15.354 0.0675 73.676 0.7402 45.108 0.5842 70.69 1.3055 28.203 0.7532 29.795 1.7607"/> </g> <g fill="#ffb185"> <path d="m581.05 971.25q-0.94647-0.11218-1.6062-0.05003-5.4176-0.2079-7.9452 4.8754-2.0532 3.433-2.4786 18.286l-0.93 0.6776q-7.5556 5.3878-8.0626 9.0503-0.8955 4.023 1.3469 10.883-3.5729 9.9007-2.6516 15.872 0.768 3.7963 3.3588 6.9255 1.5267 2.2323 8.1869 8.0135 2.7622 5.7053 4.6984 7.6421 2.2491 2.3153 3.876 3.0862 3.1933 1.5914 7.4042 2.0921 7.2339 0.8598 17.469-1.4979 16.631-3.3338 51.807-14.696l5.0308-49.758-24.468-2.8718-9.3184-12.811q-17.773 2.5188-24.246 1.7501-0.4743-0.05664-0.8882-0.1311-3.1422-0.46265-5.5271-1.4532-9.4765-4.7164-10.151-4.797-0.07392-0.00816-0.04249 0.03857-2.9916-0.90369-4.862-1.1261z"/> </g> <g fill="#008080" fill-opacity=".99608"> <path d="m544.89 1120.7-1e-4 0.0011 1e-4 5e-4v-0.0016z"/> </g> <g fill="#637079"> <path d="m682.87 995.28-16.705-1.9852-16.705-1.9856q-3.788 31.876-7.577 63.752 16.706 1.9862 33.411 3.9709 3.7884-31.876 7.5766-63.752z"/> </g> <g fill="#677678" fill-opacity=".99608"> <path d="m762.91 1231.9 0.0261 0.0105 4.648 4.7048 4.4e-4 0.0016 4.1527 4.248-0.02655 0.0628-95.027-0.6794-5e-4 -0.0014-95.614-0.7373-0.03524-0.0274-0.91656-3.3589v5e-4l-1e-3 -0.0033c-0.4629-1.6375-0.7237-3.005-0.75035-3.5251l0.00475 1e-3 0.0194 0.0223 0.00545-0.0681c2.4715-0.1823 23.971-0.3045 49.815-0.3978l0.0043 0.0011v-0.0019l3.4617-0.0062 0.7857-0.0011 0.79776-0.0021c27.308-0.0462 64.978-0.1102 86.804-0.1779l0.00296 0.0011 7.4e-4 -0.0021 41.843-0.0637z"/> <path d="m520.46 1231.1 0.00175 0.0011c0.44965 0.0153 1.4246 0.0537 2.945 0.1158l0.0011-1e-3 5.8314 0.2363 11.246 0.4548 0.00105-0.0011c10.121 0.4076 18.529 0.8031 19.765 0.9382l-0.00423 0.0754 0.00433 0.0011c0.0011 1e-3 0.0024 0.0037 0.0032 0.0057v0.0016l0.03446-0.0526c0.18284 0.4439 0.65778 1.8762 1.1475 3.562v1e-3l0.909 3.1588-0.04976 0.0654-42.109-0.254-0.0512-0.0514 0.02494-4.1598c0.01206-1.9941 0.12636-3.5439 0.24463-4.0578l0.05017-0.0404z"/> </g> <g fill-opacity=".99608"> <path d="m733.18 1234.5-3e-4 0.0016 3e-4 -9e-4v-7e-4z"/> </g> <g fill="#fff" fill-opacity=".99608"> <path d="m870.57 1202.8-3.4e-4 0.0016q0-8e-4 3.4e-4 -0.0016z"/> </g> <g fill="#fff"> <path d="m766.05 1289.5v0.0024-0.0024z"/> </g> <g fill="#3c464f" fill-opacity=".99608"> <path d="m845.04 913.04v3.7e-4 0.00143-0.00143-3.7e-4 3.7e-4 0.00143q0-0.00143 0-0.0018z"/> <path d="m837.01 903.48v0.00134-0.00134 0.00256-0.00122-0.00134 0.00256q0-0.00256 0-0.00256z"/> </g> <g fill="#222b32"> <path d="m841.53 912.84v0.00219l0.00311-8.3e-4v-5e-4 -8.6e-4l-0.00311 0.00136v-0.00136zm-321.37 318.28v0.0024c0.0284 0.0053 0.05296 0.0077 0.0754 0.0077l7.5e-4 3e-4 -0.07085-0.0104-0.0053 0.0024zm59.025 1.4649v0.0017c-0.0133 0-0.01905 0.0023-0.01905 0.0023l0.00275 0.0011c0.0033-0.0011 0.0106-0.0023 0.021-0.0051l-0.0047 0.0017zm-18.812 0.3153v0.0024c0.00574-0.0011 0.01013 4e-4 0.0125 4e-4l0.00154 0.0016c0-0.0016-0.00318-0.0031-0.00954-0.0044l-0.0045 0.0021zm202.53-0.9891v2e-3l-41.843 0.0623 3.6e-4 4e-4c-22.265 0.0694-60.954 0.1346-88.391 0.1816l-3.4622 0.0057 0.0011 9e-4c-25.85 0.0936-47.346 0.2154-49.818 0.3982l0.00435 0.0011c0.02477 0.5117 0.28484 1.879 0.7497 3.5218l5.3e-4 0.0033 0.91687 3.3583 95.615 0.7389v4e-4l95.027 0.6801-4.153-4.2506-4.6477-4.7044v2e-3zm-242.45-0.7734v0.0025c-0.11669 0.5056-0.2312 2.0498-0.24291 4.0439l-0.02524 4.1603 42.109 0.2538-0.9086-3.1603c-0.4902-1.6857-0.96554-3.118-1.1464-3.5574l0.0046 5e-4c-1.2343-0.1343-9.6385-0.53-19.762-0.9372v0.0011l-11.247-0.4555-5.832-0.2352v4e-4c-1.4936-0.0606-2.5229-0.1005-2.9456-0.1169l-0.00505 0.0025zm322.37 47.973v0.0021l0.00152 4e-4 0.00234-0.0025-0.00386 0.0025v-0.0025zm-4.5323-366.34v0.0022c0.00165-0.0022 0.00375-0.0022 0.00561-0.0016l3.242 0.07274v8.6e-4l0.0058-8.6e-4c1.7671 0.06456 7.3962 0.41786 12.501 0.8208v2.6e-4l0.02535 0.0012v7.4e-4l0.02545 0.00146v7.3e-4c9.2847 0.69237 9.4015 0.71143 28.525 6.0803v0.00109c17.501 4.8388 19.559 5.413 19.244 6.8611l-0.00487 0.02036 2e-4 6.3e-4c-0.2903 1.3657-12.648 76.057-27.579 166.7l-5.5753 33.862-4.2965 26.096c-18.907 114.82-20.546 124.68-21.141 125.58v0.0028c-0.1093 0.163-0.2512 0.2229-0.3882 0.232l0.0016 0.0016c-0.1125 0.1245-0.28845 0.6457-0.2931 1.4003l-0.00915 1.5425c-9.5e-4 0.0951-0.03918 0.1855-0.10675 0.2522-0.0679 0.0668-0.1593 0.1036-0.2547 0.1036l-353.31-2.1412c-0.19426-0.0016-0.35204-0.1564-0.3563-0.3501l-0.2508-11.268c-0.17523-6.1715-0.25983-18.512-0.2068-27.389l-0.05925-14.343 296.22-0.3286 0.0122-2.0859 0.015-2.4455c1e-3 -0.1312 0.07314-0.251 0.1884-0.3128 0.0541-0.0295 0.1135-0.0442 0.17264-0.0439 0.06706 5e-4 0.13426 0.0198 0.19266 0.0583l1.3239 0.8586 0.0097 0.0066c0.37645 0.2615 0.63194 0.3818 0.77714 0.4241l-4.4e-4 3e-4c0.5824-4.6052 21.306-129.87 21.84-132.04l-8e-4 0.0019c-0.0012-2e-3 0.0158-0.0713 0.05997-0.1372l-0.0011 0.0023c0.09553-0.1443 0.26023-0.172 0.26916-0.1731v0.0011c0.14203-0.0332 0.40877-0.0399 0.72557-0.038 1.4456 0.0087 4.9251 0.2232 8.8954 0.5337l9e-4 1e-3c3.799 0.2654 6.0979 0.4108 7.5849 0.4193 1.7538 0.0105 2.3031-0.1695 2.8211-0.5107l0.00794-0.0052c1.2888-0.801 1.8931-2.535 1.4147-4.099l-5e-4 -2e-3c-0.482-1.6121-2.7418-2.3063-11.774-2.7943l2.5e-4 7e-4c-4.8986-0.221-7.8874-0.5526-8.4662-0.9763l-2e-4 5e-4c-0.0738-0.0548-0.21664-0.1819-0.2152-0.3927 0-0.0202 0.0022-0.0389 0.0022-0.0424v0.0014c0.0764-0.7776 6.2904-38.963 13.913-85.192v1e-4l13.907-84.539c0.02832-0.1748 0.17969-0.302 0.3562-0.3011v0.0022z"/> </g> <g fill="#222b32" fill-opacity=".99608"> <path d="m820.05 1057.2-4.0658-0.3053-4.0668-0.306q-1.8843 25.032-3.7689 50.063 4.0665 0.3064 8.1326 0.6132 1.8848-25.033 3.7689-50.065z"/> </g> <g fill="#44c5e5" fill-opacity=".99608"> <path d="m880.51 935.3-39.621-12.414-46.582 294.78q17.036 16.935 34.071 33.869l52.133-316.24z"/> </g> <g> <path d="m851.18 1004.5-187.56-15.301q-3.031 37.153-6.0616 74.306 93.782 7.6507 187.56 15.302 3.0311-37.154 6.0614-74.307z"/> </g> <g fill="#ffbcb0"> <path d="m391.38 974.6q-0.37549 0.0076-0.73542 0.0248-4.5561 0.16626-10.273 3.1164l0.12262 0.20215-19.632 12.151 3.0103 8.4556 21.353-13.867-0.00208 0.0011q11.314-1.2471 16.08-2.7612l-0.00238 0.0011q1.4974-0.22119 4.4866-0.67525 2.6124-0.40135 4.6683-0.749 4.1417-0.69727 7.2585-1.3837 6.5143-1.4424 6.3738-2.3245l-0.00219-0.00917q-0.02112-0.6373-4.5417-1.0101-4.7707-0.4003-14.179-0.56704l-0.02912 0.0376v4.9e-4q-4.4779-0.07141-5.0781-0.12659-0.6261-0.01501-5.1733-0.39146l-1.6119-0.0955q-1.101-0.0499-2.0934-0.0299z"/> </g> <g fill="#fff"> <path d="m373.47 984.47-13.147 4.4559 3.3886 18.029q6.4334-0.51014 8.91-1.5094 2.943-1.0911 3.8713-3.2417 0.95532-2.1179 0.25024-6.2517-0.53973-3.4699-3.2614-11.446z"/> </g> <g> <path d="m259.95 1243.2q-5.6147-0.0321-5.4541 10.736 0.18439 3.2679 0.93103 4.8441 0.31433 0.6708 0.76985 1.1514 1.9437 1.6121 1.9882 1.8544 0.54971 0.7505 0.86466 1.8811 0.39474 0.2073 1.6834 12.873 0.3393 2.0704 0.9449 2.6329 0.885 0.8793 2.8766-1.4806-2.6865-11.811-1.6667-13.987 0.50275-2.2944 4.6576-2.11l6.0267 4.1267 2.2573 14.543 3.1985 0.1986 0.02337-0.0644-0.70898-10.68q9.9013 10.036 13.434 12.311 3.3942 2.4839 7.979 2.2113 16.267-0.5856 23.5-2.1968 7.7894-1.8533 5.6956-4.5102-0.85583-0.9183-3.455-2.0707-11.001-4.3321-18.512-7.7327l-33.204-19.392-2.3898-1.2077q-7.9754-4.0564-11.305-3.9319z"/> </g> <g fill="#ffbcb0"> <path d="m273.09 1235.2 0.05823 15.11q9.3832 13.99 14.479 18.45 5.853 5.2944 12.098 5.7356 3.6595 0.2143 6.5824-1.3861 2.988-1.7524 2.5569-3.7996-0.17352-0.5808-0.92196-1.261-4.4955-3.4122-6.0635-5.1808-2.0816-2.2021-3.8104-4.9336-4.4732-7.0002-10.465-21.826l-14.472-0.9062z"/> <path d="m266.25 1234.6-6.4295 10.163 0.01779 0.0134 13.618 5.8312q0.61297-5.5029 0.53558-7.5838-0.05316-2.323-0.81018-3.995l-0.09161-0.1917-6.8376-4.2356z"/> </g> <g> <path d="m265.38 923.26v0.00243l-0.26887 0.0038-6.1849 0.1537c-6.1037 8.244-10.664 13.115-13.608 14.749-2.1907 1.2156-6.3755 2.2916-12.513 3.6612-1.2274 0.27353-2.1154 1.0367-2.8786 1.6826-2.6984 2.2806-3.9818 7.5813-3.6605 15.95 0.24509 6.3805 1.3028 12.151 2.9089 17.356 1.2845 4.1634 3.9402 8.7611 8.0876 13.755-0.60424 2.5218-0.13732 5.0113 1.1993 7.5771 2.0208 3.8783 8.1722 12.761 18.658 26.543-8.5575 23.233-12.857 38.33-12.898 45.292l2.093 1.1634c-1.0306 3.655-1.0795 7.5412-0.14643 11.659l11.113 37.605c1.5887 6.2419 2.8646 13.618 3.6909 22.144 0.72931 7.5242-0.10127 37.948-2.3548 91.258 5.8225 4.4695 11.228 6.6803 16.214 6.5251 5.2656-0.1642 9.9619-1.0401 14.092-2.5224 3.8299-24.047 7.3398-40.75 10.38-50.158 1.3245-4.0994 2.6398-7.5219 4.0963-10.222l9.6525-14.871c0.9192-1.7628 1.925-4.9425 2.7421-9.5894 0.78327-4.4565 2.4568-22.121 4.8196-52.986 0.55121-7.1991 0.30255-15.678-0.26861-25.407l7.3113-1.4285-12.541-57.083c-0.284-5.7185 0.26335-12.294 1.6425-19.726 6.372 5.5528 12.152 10.991 17.456 16.2 1.0752 1.0558 2.738 2.0355 4.9822 2.745 2.3294 0.73695 10.932-2.0633 25.714-8.0846l-3.4539-18.976c-10.413 3.5939-16.366 4.8942-17.858 3.9007l-11.629-21.049c-4.8242-9.3889-8.4439-17.325-10.981-23.762-0.2901-0.7364-0.88225-1.4531-1.6566-2.2019 0.87823-2.3238-14.884-8.0398-14.884-8.0398-1.5777-0.57224-9.7609-4.875-12.702-10.005-1.0112-0.9812-2.078-1.6112-3.1367-2.0536-3.4161-1.4271-11.106-2.0691-23.137-1.7629l-0.09056 0.0044z"/> </g> <g fill="#ff0d00"> <path d="m258.87 924.16q23.197 34.404 28.283 42.444 7.5331 11.728 7.6608 13.606l5.7483 1.0421q-8.6527-28.979-10.645-36.594-2.5831-9.4964-3.8901-17.524l-27.102-2.9671z"/> </g> <g fill="#ffeb3b" fill-opacity=".99608"> <path d="m227.9 961.52v6.1e-4 -6.1e-4 0.00194-0.00133-6.1e-4 0.00194q0-0.00194 0-0.00194z"/> </g> <g fill="#222b32"> <path d="m327.79 1006.7-0.52722 0.9066q-1.8678 2.6059-5.0194 3.1745-3.1666 0.55811-6.1722-1.3117-2.7986-1.9271-3.5409-4.9939-0.23473-0.98814-0.20348-2.0038l0.10284-1.0088q0.17182-1.0093 0.63824-1.9698 1.5194-2.9034 4.5532-3.8404 3.0334-0.93714 6.1977 0.51989 3.0916 1.6053 4.2119 4.5747 1.1205 2.9714-0.24073 5.9526z"/> </g> <g fill="#ffbcb0"> <path d="m307.07 962.01-15.728 17.946 7.8524 11.353 0.02527-0.01866q2.8956-4.1648 9.0025-12.419l-1.1492-16.815z"/> <path d="m325.59 961.23q-2.3845-5.5189-18.542 0.99087l-0.73475 16.514q4.5476 0.588 8.0141 0.95236 1.4414 0.14954 2.469 0.08789 2.797-0.156 4.6865-1.9043 2.6946-2.4658 4.2336-8.2184 1.2842-5.3489-0.11145-8.3913z"/> <path d="m341.32 957.26q-0.66515-1.0015-5.2572-0.60644-3.8524 0.29214-15.071 2.3845l1.0777 4.9322 0.01154 0.0081q3.6849-0.9071 5.2581-1.3057 2.4167-0.6097 4.3234-1.1238 3.5388-0.95224 5.7133-1.7076 4.3088-1.4954 3.9455-2.5785z"/> </g> <g fill="#ff0d00"> <path d="m291.47 978.15-11.421 8.3237 11.846 21.492q5.515-3.9967 7.4038-6.494 2.2463-2.8546 2.1888-5.6848-0.00476-2.8194-2.3304-6.9216-1.9124-3.4851-7.6834-10.711z"/> </g> <g fill="#687177"> <path d="m345.54 882.73 6e-5 3e-4v7e-4 -7e-4l-6e-5 -3e-4 6e-5 3e-4v7e-4q0-7e-4 -6e-5 -1e-3z"/> <path d="m345.54 882.73 6e-5 3e-4v7e-4 -7e-4l-6e-5 -3e-4 6e-5 3e-4v7e-4q0-7e-4 -6e-5 -1e-3z"/> </g> <g fill="#3c5360" fill-opacity=".99608"> <path d="m397.39 1027 3.1e-4 9e-4 -3.1e-4 -9e-4 3.1e-4 9e-4 -3.1e-4 -9e-4 3.1e-4 9e-4 -3.1e-4 -9e-4z"/> </g> <g fill="#313440"> <path d="m374.41 1073.2 9.7079-0.4074 9.7087-0.4088q0.27898 6.634 0.55718 13.269-9.7086 0.4077-19.416 0.8164-0.27953-6.6346-0.5573-13.269z"/> </g> <g fill="#3f434f"> <path d="m361.14 1064 22.567-0.9492 22.567-0.9477q0.33563 7.9776 0.67023 15.956-22.567 0.9486-45.134 1.8981-0.33538-7.9789-0.67016-15.957z"/> </g> <g fill="#292b37"> <path d="m353.7 1035.4 28.459-1.1971 28.459-1.1956q0.76343 18.182 1.5276 36.364-28.459 1.197-56.918 2.394-0.7641-18.183-1.5275-36.365z"/> </g> <g fill="#fdc00f"> <path d="m376.81 910.41c-27.939 1.1742-49.789 24.878-48.611 52.937 0.04242 1.0144 0.21522 2.263 0.38702 3.5122 1.0675 6.8927 3.4996 13.548 7.0994 19.497 3.8601 6.4753 9.6528 16.22 14.401 23.915 2.1822 3.5563 5.7839 8.1299 5.8136 23.08l26.03-1.0935 26.089-1.0975c-1.2271-14.96 1.9801-19.758 3.8564-23.486 4.0868-8.0666 9.0435-18.202 12.347-24.979 3.0841-6.2898 4.9503-13.126 5.4361-20.084 0.0661-1.2585 0.13294-2.5176 0.09014-3.5323-1.179-28.058-25-49.843-52.939-48.669z"/> </g> <g fill="#e2a305"> <path d="m366.23 1033-10.328 0.435c-0.03241-15.01-3.6312-19.524-5.8138-23.081-4.7489-7.6943-10.539-17.38-14.399-23.855-3.6015-6.0092-6.0344-12.664-7.1017-19.558-0.17212-1.2481-0.34411-2.4967-0.38678-3.5114-0.82532-19.641 9.6246-37.125 25.507-46.284-10.927 10.386-17.539 25.257-16.856 41.495 0.04498 1.0747 0.21948 2.3831 0.45672 3.7492 1.0835 7.3093 3.7134 14.376 7.5096 20.736 4.1169 6.8841 10.291 17.209 15.3 25.372 2.2504 3.7333 6.1053 8.6535 6.1127 24.502z"/> </g> <g fill="#3f434f"> <path d="m412.2 1035.4c0.03309 0.7761-0.53918 1.3986-1.3159 1.4306l-57.074 2.4c-0.77613 0.0324-1.3979-0.54-1.4306-1.3157l-0.12311-2.9258c-0.03247-0.7759 0.53966-1.3978 1.3154-1.431l57.015-2.396c0.77521-0.0335 1.3971 0.5384 1.4298 1.3145l0.12348 2.9262z"/> <path d="m412.62 1050c0.03205 0.7766-0.53906 1.3985-1.316 1.4311l-57.073 2.4004c-0.77656 0.032-1.3989-0.5399-1.4313-1.316l-0.12287-2.9259c-0.03271-0.7751 0.53949-1.3975 1.3155-1.4307l57.014-2.3958c0.7763-0.033 1.3977 0.5386 1.431 1.3147l0.12255 2.925z"/> <path d="m412.98 1058.8c0.03273 0.7755-0.5393 1.3983-1.3154 1.4315l-57.074 2.3999c-0.77643 0.0323-1.3983-0.5402-1.4307-1.3157l-0.1229-2.9258c-0.0326-0.7763 0.539-1.3987 1.3154-1.4311l57.014-2.3965c0.77648-0.0335 1.3979 0.5387 1.4313 1.3144l0.12274 2.9258z"/> </g> <g fill="#fed96f"> <path d="m410.27 925.51c-14.767-12.716-34.013-11.01-34.787-10.918-2.2039 0.21157-3.7947 2.1923-3.585 4.3368 0.21203 2.2036 2.1935 3.7949 4.3375 3.5858 0.17865-0.0079 16.623-1.4763 28.845 9.0141 8.0676 6.9568 12.461 17.597 13.176 31.741 0.08233 1.9696 1.5829 3.5214 3.5059 3.7397 0.24144 0.04993 0.48015 0.03917 0.65917 0.03197 2.2085-0.093 3.8644-1.9566 3.7717-4.1653-0.8092-16.412-6.1817-28.984-15.923-37.366z"/> </g> <g fill="#ffbcb0"> <path d="m309.04 959.88 2.1154-0.37147q9.537-1.6894 14.078-1.9154 5.6216-0.39926 9.4161 0.787 3.4597 1.2412 4.851 3.7733l0.61313 1.2941q0.49945 1.3527 0.5288 2.8207 0.02906 1.4675-0.42425 2.9315-0.9006 2.9864-3.8117 5.2465l-1.5854 1.0167q-1.7141 0.94175-3.8581 1.6328-7.5038 2.4202-24.454 3.2156l-6.7386 8.0248-8.7868-9.681 18.056-18.775z"/> </g> <g> <path d="m299.43 882.91 0.3703-2.4578q-2.7213-7.4454-11.911-9.5595-10.869-3.1745-21.434-0.5643-6.0047 1.8852-9.2628 6.3512-3.1836 3.6063-7.5975 16.629-7.6841 2.0506-11.554 4.3732-3.2424 2.1742-3.4103 4.9422-1.019 4.2775 7.4667 20.743l8.7702 0.89196-0.82437 12.404 28.015-7.2991 21.373-46.454"/> </g> <g fill="#ffb298"> <path d="m278.26 939.9c12.725 14.531 10.348-4.9004 10.991-6.2263 1.0912-2.2486 1.9699-5.4358 2.5052-9.6263l4.7114 0.0188c1.5825 0.8656 2.9898 1.1716 4.2155 0.88853 2.3467-0.54199 3.9613-1.5466 4.8611-2.9782 0.59289-0.94285 0.24158-2.505-1.0645-4.693 0.71661-1.1565 1.171-2.0273 1.3143-2.624 0.16626-0.69287-0.05951-1.2808-0.62751-1.7533l0.33698-2.8959c0.63525-0.34263 0.92597-0.69103 0.91077-1.0475-0.01862-0.42969-0.4231-1.1832-1.2524-2.2596 0.58057-0.5943 1.0984-1.0252 1.554-1.2919l2.5999-1.209c0.32985-0.1563 0.64418-0.3259 0.91408-0.546 0.55298-0.4508 0.73772-0.9005 0.66455-1.3288-0.09686-0.56656-0.58753-1.3056-1.4855-2.271-0.45111-0.48474-1.9536-1.69-4.4895-3.6673-0.48376-0.37716-0.83448-0.8809-1.1266-1.4113-0.29248-0.53135-0.52802-1.1432-0.59052-1.8421-0.28998-3.2487-0.60882-5.5113-0.97668-6.8098-0.3797-1.3414-1.2937-3.6925-2.8578-7.0222-1.7677 0.1066-3.1545 0.4334-4.1903 0.9159-0.60193 0.28054-1.6473 0.86544-3.1077 1.8199l-6.4282 3.3906 3.3614 4.6101-1.3019 8.5451-6.9546 4.5045c-3.5855-3.3079-6.4031-4.4435-8.5556-3.6769-1.7155 0.61078-2.0604 2.6046-0.94465 6.2562-1.5552-0.7379-2.4302-0.8122-2.6246-0.2221-0.15143 0.12724-0.138 0.7325 0.00183 1.8206 0.07471 0.5806 0.4925 2.2358 1.2916 4.962l1.3078 8.5374 4.7424 3.9926z"/> </g> <g> <path d="m238.76 907.6-0.43009 7.1902q2.917 7.9292 4.8057 11.456 1.9263 3.4058 2.3932 3.8199 0.8494 1.104 1.7847 1.9254 1.8968 1.584 4.0309 2.2432 0.65112 0.3164 7.1951 1.695 0.53259 0.05125 2.5486 1.168 2.4487 1.3008 6.132 7.0573l25.175 17.675q-8.6764-9.3695-9.7833-13.045-0.50707-1.2434-0.69964-2.4453l-0.10773-1.1912q-0.02197-1.1796 0.16822-2.3374l1.134-5.8454q0.17511-3.0462-0.13617-3.7314-0.56757-2.5919-2.7343-5.5095-2.1713-2.9184-5.3713-6.0461-2.2991-2.3256-8.6433-7.9502l-27.461-6.1292"/> </g> <g fill="#fff"> <path d="m305.5 909.97 1.8e-4 4.7e-4 -3.8146 1.9927q1.7361 0.57714 3.4725 1.154l0.34197-3.1472"/> </g> <g fill="#f00"> <path d="m306.25 908.26-4.9132 3.5961 4.5232 2.1502q0.15503-0.33676 0.07093-0.5373-0.1504-0.283-0.4206-0.4202-0.51953-0.3512-3.2094-1.1832 0.77545-0.46877 1.3214-0.7771l1.8183-0.989q0.47925-0.2815 0.6584-0.4552 0.30113-0.252 0.38896-0.70316l-0.23796-0.68114"/> <path d="m289.51 878.35 1.2e-4 4.3e-4 -1.2e-4 -4.3e-4v0.00207"/> </g> <g fill="#5a2b16"> <path d="m302.21 893.21-0.51032-0.13892q-1.5546-0.42981-2.8964-0.72851-1.4396-0.29714-1.9597-0.27588-0.6684 0.0061-1.0152 0.19207-0.3676 0.14661-0.78197 0.76267l7.1635 0.18857"/> </g> <g fill="#fff"> <path d="m300.76 895.15-1.7485 0.55696-1.7484 0.5564q1.8998 0.23414 3.7997 0.46869l-0.30285-1.582"/> <path d="m295.62 901.64v0.0019l1.8e-4 -0.0019-1.8e-4 0.0019"/> </g> <g> <path d="m300.76 895.21 0.00891 0.03536q0.07403 0.24591 0.31891 1.5514-0.40546 0.06268-0.60614 0.03425-0.08094-0.01014-0.15595-0.0348l-0.07342-0.0291q-0.07178-0.03426-0.13556-0.088-0.06372-0.0549-0.11969-0.13003l-0.05396-0.07897q-0.05212-0.0839-0.099-0.18294-0.11786-0.24261-0.28602-0.79456l1.2019-0.2826"/> <path d="m255.67 920.06 1.9e-4 0.00193v-0.00193l-1.9e-4 0.00193"/> <path d="m246.82 894.08 5.1614 8.2775q1.2569-1.2404 1.9043-1.6816 0.64386-0.4728 1.9688-1.0617l-5.7897-8.1309q-0.48687 1.3276-1.057 1.7374-0.48273 0.44346-2.1878 0.85926"/> </g> </g> </svg>